<?xml version="1.0" standalone="no"?>
<!DOCTYPE svg PUBLIC "-//W3C//DTD SVG 20010904//EN"
 "http://www.w3.org/TR/2001/REC-SVG-20010904/DTD/svg10.dtd">
<svg version="1.0" xmlns="http://www.w3.org/2000/svg"
 width="512.000000pt" height="512.000000pt" viewBox="0 0 512.000000 512.000000"
 preserveAspectRatio="xMidYMid meet">

<g transform="translate(0.000000,512.000000) scale(0.100000,-0.100000)"
fill="#000000" stroke="none">
<path d="M1742 4843 c-7 -3 -98 -176 -202 -384 l-190 -379 0 -1067 0 -1068
-53 -46 c-61 -54 -107 -132 -122 -209 -11 -52 -14 -56 -64 -84 l-53 -28 -28
33 -28 34 -338 3 c-242 2 -346 -1 -366 -9 -35 -14 -58 -45 -58 -78 0 -21 319
-1180 340 -1237 20 -51 41 -54 415 -54 368 0 390 3 415 49 16 32 12 58 -35
211 -24 79 -43 145 -41 147 20 21 327 206 354 213 31 9 91 3 359 -39 178 -28
356 -51 396 -51 138 0 259 43 429 153 46 30 289 185 540 346 l457 291 486 0
c472 0 486 1 505 20 20 20 20 33 20 1246 l0 1225 -184 374 c-118 239 -191 377
-204 384 -15 8 -406 11 -1379 10 -747 0 -1364 -3 -1371 -6z m1318 -413 l0
-300 -420 0 c-407 0 -421 -1 -440 -20 -24 -24 -26 -57 -3 -82 15 -16 35 -18
215 -18 l198 0 0 -257 c0 -225 2 -259 17 -275 15 -17 44 -18 506 -18 442 0
492 2 509 17 17 15 18 37 18 275 l0 258 550 0 550 0 0 -1150 0 -1150 -565 0
-565 0 0 373 c0 396 0 398 -48 412 -18 5 -34 -5 -87 -56 l-65 -62 -59 56 c-80
76 -98 76 -176 -3 l-59 -60 -56 60 c-75 81 -94 81 -176 -1 l-61 -61 -44 52
c-56 65 -91 85 -122 69 -12 -7 -25 -17 -29 -23 -4 -6 -8 -179 -8 -383 l0 -373
-175 0 c-96 0 -175 2 -175 5 0 2 48 100 106 218 101 204 106 217 107 278 1
187 -173 326 -345 275 -74 -21 -108 -53 -262 -242 -74 -90 -146 -174 -160
-185 l-26 -20 0 367 c0 286 3 365 12 356 17 -17 58 -15 80 5 17 15 18 40 18
371 0 317 -2 357 -17 374 -18 20 -63 24 -81 6 -9 -9 -12 1 -12 47 0 46 3 56
12 47 17 -17 58 -15 80 5 13 12 18 31 18 74 0 73 -17 93 -72 86 l-38 -5 0 119
0 119 77 0 c57 0 81 4 95 17 24 21 23 58 -2 83 -18 18 -33 20 -195 20 l-175 0
150 300 150 300 625 0 625 0 0 -300z m1513 5 c81 -162 147 -297 147 -300 0 -3
-346 -5 -770 -5 l-770 0 0 300 0 300 623 0 622 0 148 -295z m-1033 -640 l0
-215 -405 0 -405 0 0 215 0 214 405 1 405 0 0 -215z m-1232 -1445 c45 -27 72
-76 72 -129 0 -36 -22 -86 -125 -292 -75 -149 -125 -259 -125 -277 0 -59 -33
-57 776 -62 l743 -5 -467 -296 c-257 -164 -489 -308 -517 -322 -128 -63 -206
-63 -592 -3 -305 48 -377 54 -434 35 -19 -7 -103 -55 -187 -107 -84 -52 -154
-93 -156 -91 -5 5 -206 648 -206 658 0 4 27 20 60 36 83 40 130 84 130 123 0
55 37 135 82 179 62 60 98 74 210 84 178 15 225 47 416 282 80 98 157 184 171
192 38 21 110 18 149 -5z m1121 -130 c6 0 26 14 46 31 l35 31 0 -286 0 -286
-375 0 -375 0 0 286 0 286 36 -31 c45 -40 62 -36 137 37 l57 56 58 -56 c84
-82 90 -82 170 -4 l67 65 66 -65 c37 -35 72 -64 78 -64z m-2480 -722 c5 -18
82 -269 171 -558 88 -289 163 -531 165 -538 3 -9 -61 -12 -299 -12 l-303 0
-156 563 c-86 310 -157 567 -157 570 0 4 128 7 284 7 l284 0 11 -32z"/>
<path d="M812 721 c-67 -43 -95 -124 -67 -196 66 -173 315 -130 315 55 0 49
-29 106 -68 135 -40 29 -137 32 -180 6z m118 -116 c26 -32 -13 -81 -47 -59
-23 14 -28 41 -13 59 16 19 44 19 60 0z"/>
</g>
</svg>
