<?xml version="1.0" standalone="no"?>
<!DOCTYPE svg PUBLIC "-//W3C//DTD SVG 20010904//EN"
 "http://www.w3.org/TR/2001/REC-SVG-20010904/DTD/svg10.dtd">
<svg version="1.0" xmlns="http://www.w3.org/2000/svg"
 width="1920.000000pt" height="1351.000000pt" viewBox="0 0 1920.000000 1351.000000"
 preserveAspectRatio="xMidYMid meet">

<g transform="translate(0.000000,1351.000000) scale(0.100000,-0.100000)"
fill="#000000" stroke="none">
<path d="M9392 12076 c-56 -20 -110 -81 -122 -140 -8 -36 -10 -415 -8 -1286 3
-1155 4 -1237 21 -1267 24 -44 64 -83 103 -99 28 -12 249 -14 1322 -14 1134 0
1291 2 1302 15 11 13 -130 15 -1256 15 -855 0 -1281 4 -1307 11 -44 12 -101
59 -125 103 -16 29 -17 117 -20 1117 -2 1187 -4 1155 55 1211 65 62 -66 58
1863 58 1562 0 1765 -2 1797 -15 90 -38 115 -91 121 -252 4 -114 6 -123 24
-123 19 0 19 8 16 268 -3 229 -5 271 -20 298 -24 43 -71 86 -110 101 -48 17
-3609 17 -3656 -1z m248 -111 c26 -32 -13 -81 -47 -59 -35 22 -23 74 17 74 10
0 23 -7 30 -15z m170 -5 c22 -40 -26 -80 -58 -48 -16 16 -15 55 1 61 26 11 47
6 57 -13z m166 5 c4 -8 3 -27 0 -41 -5 -20 -12 -25 -34 -22 -28 3 -40 32 -28
64 7 19 55 18 62 -1z m2914 -5 c8 -14 8 -26 0 -40 -10 -19 -21 -20 -408 -20
-296 0 -401 3 -410 12 -13 13 -16 50 -5 61 3 4 188 7 409 7 393 0 404 -1 414
-20z"/>
<path d="M7458 11035 c-42 -14 -98 -62 -98 -85 0 -4 -25 -22 -56 -40 -171 -96
-252 -259 -225 -453 24 -170 103 -323 225 -434 56 -51 160 -112 172 -101 9 10
33 127 34 168 0 19 -9 49 -21 65 -80 119 -95 240 -37 303 31 33 68 28 124 -17
58 -45 106 -71 132 -71 18 0 20 10 24 123 9 221 52 251 269 186 68 -21 125
-32 165 -32 l62 0 6 -36 c3 -20 6 -49 6 -64 l0 -28 31 18 c49 29 110 93 130
137 46 102 -6 232 -114 288 -32 16 -55 19 -140 16 -238 -6 -286 -2 -397 31
-126 38 -226 47 -292 26z"/>
<path d="M13140 9925 c0 -234 -3 -425 -8 -425 -15 0 -222 216 -222 232 0 9
-14 30 -30 47 -50 49 -107 47 -169 -6 -39 -33 -43 -34 -95 -28 -94 12 -211
-35 -275 -111 -14 -16 -51 -58 -83 -93 -32 -35 -58 -67 -58 -71 0 -4 49 -52
108 -106 210 -192 294 -268 317 -286 l23 -18 93 103 93 102 106 5 c92 5 110 9
144 32 28 19 44 24 55 18 9 -5 158 -152 332 -327 332 -334 328 -328 330 -413
0 -8 -100 -287 -221 -620 -122 -333 -226 -617 -232 -632 -6 -18 -17 -28 -29
-28 -30 0 -80 -28 -121 -68 -36 -34 -52 -66 -62 -124 l-5 -28 225 0 c250 0
235 -5 212 71 -11 38 -61 100 -105 129 l-21 15 134 365 c73 201 143 390 153
420 104 293 176 481 197 511 13 19 24 46 24 60 0 20 -81 107 -385 409 l-385
384 0 453 c0 446 0 453 -20 453 -20 0 -20 -7 -20 -425z m-116 -371 c75 -77
102 -112 99 -125 -3 -11 -11 -19 -17 -19 -6 0 -58 47 -115 104 -93 94 -102
105 -92 125 7 11 14 21 16 21 3 0 52 -48 109 -106z m-44 -70 c116 -116 117
-122 46 -157 -41 -21 -150 -35 -159 -20 -3 5 0 27 8 49 19 52 19 121 0 174
-30 85 -22 82 105 -46z m529 -416 c182 -183 331 -336 331 -339 0 -4 -10 -11
-21 -14 -19 -6 -71 42 -346 318 -276 275 -324 327 -318 346 3 11 10 21 14 21
5 0 157 -149 340 -332z m354 -505 c3 -5 -97 -289 -222 -633 -166 -456 -232
-626 -244 -628 -10 -2 -17 1 -17 6 0 10 419 1166 445 1230 13 31 29 41 38 25z"/>
<path d="M7325 9530 c-144 -52 -311 -164 -441 -294 -179 -180 -268 -349 -314
-599 -33 -185 -90 -648 -130 -1067 -84 -893 -84 -883 -52 -927 21 -29 22 -41
22 -215 0 -497 82 -800 268 -1000 l45 -48 893 0 c798 0 894 -2 908 -16 14 -13
16 -47 16 -217 0 -111 -4 -207 -8 -214 -4 -6 -19 -16 -34 -22 -31 -11 -40 -38
-122 -333 -109 -391 -216 -890 -356 -1648 -38 -212 -77 -415 -85 -452 -8 -37
-15 -74 -15 -82 0 -29 163 -122 308 -175 65 -24 178 -55 280 -77 19 -4 25 2
38 33 69 166 177 417 354 823 225 516 308 710 394 924 31 76 60 145 65 154 5
10 13 -21 21 -89 40 -345 116 -830 248 -1574 27 -154 53 -301 56 -326 l7 -46
57 -12 c168 -34 321 -39 490 -17 57 8 106 16 108 19 3 2 9 105 14 228 6 123
19 393 30 599 41 764 51 1024 51 1410 2 707 -46 1068 -177 1338 -134 276 -452
448 -1484 802 -273 93 -359 128 -540 216 -117 57 -216 106 -218 108 -2 2 3 17
11 33 12 23 14 63 9 223 l-5 195 -99 75 c-55 41 -107 82 -116 90 -9 8 -58 49
-107 90 -50 41 -92 77 -95 80 -3 3 -23 20 -45 39 -270 229 -651 616 -674 684
-2 7 -7 14 -10 17 -7 6 -52 106 -77 170 -10 28 -19 86 -22 151 -5 118 8 180
58 280 30 59 131 169 155 169 7 0 20 6 27 13 40 39 196 54 279 27 105 -34 265
-149 420 -302 134 -133 202 -211 332 -383 58 -77 124 -162 146 -190 23 -27 75
-102 118 -165 42 -63 80 -119 85 -125 16 -20 138 -228 143 -246 5 -13 16 -19
38 -19 71 0 716 -31 844 -40 76 -5 182 -10 235 -10 l97 0 6 48 c3 26 10 64 14
84 5 22 5 36 0 32 -5 -3 -9 2 -9 11 0 9 5 13 10 10 12 -7 13 25 1 43 -7 12
-197 66 -269 77 -15 2 -37 7 -49 10 -18 6 -23 3 -24 -11 0 -17 -1 -16 -9 3 -5
12 -17 24 -27 26 -40 12 -198 49 -217 52 -12 2 -43 10 -71 19 -56 18 -77 20
-55 6 10 -6 -2 -7 -35 -4 -62 7 -71 14 -19 15 l39 1 -35 9 c-19 5 -48 6 -65 3
-24 -4 -27 -3 -15 6 12 9 9 11 -17 8 -17 -3 -31 0 -30 5 1 5 -5 11 -13 12 -8
1 -39 10 -68 18 -31 10 -74 14 -105 12 -38 -3 -44 -2 -22 4 28 7 27 8 -28 20
-49 11 -60 17 -73 44 -9 18 -22 39 -28 47 -7 8 -20 41 -30 72 -17 52 -20 56
-33 40 -13 -15 -13 -14 -3 7 9 17 9 29 1 45 -6 11 -17 39 -25 61 l-15 40 0
-35 c-1 -26 -4 -31 -11 -20 -5 8 -7 31 -5 50 6 40 -34 182 -48 173 -5 -3 -6 4
-3 15 4 11 2 23 -4 27 -5 3 -10 15 -10 26 0 11 -4 18 -9 15 -5 -4 -7 3 -4 14
3 12 0 20 -7 20 -9 0 -11 -12 -7 -42 4 -31 3 -38 -4 -26 -5 10 -8 41 -7 70 2
41 0 52 -11 50 -9 -2 -11 3 -7 14 4 9 -1 27 -9 40 -9 13 -12 24 -8 24 5 0 4 4
-2 8 -15 10 -47 74 -33 66 6 -4 9 -3 6 2 -3 5 -28 57 -56 116 -65 138 -164
269 -284 377 l-27 23 -43 -35 c-71 -57 -106 -71 -178 -71 -84 0 -133 25 -223
115 -37 38 -71 69 -75 68 -4 0 -29 -9 -57 -19z m966 -733 c-8 -8 -11 -7 -11 4
0 9 3 19 7 23 4 4 9 2 11 -4 3 -7 -1 -17 -7 -23z m49 -162 c0 -5 -5 -3 -10 5
-5 8 -10 20 -10 25 0 6 5 3 10 -5 5 -8 10 -19 10 -25z m87 -147 c-3 -8 -6 -5
-6 6 -1 11 2 17 5 13 3 -3 4 -12 1 -19z m-10 -80 c-3 -8 -6 -5 -6 6 -1 11 2
17 5 13 3 -3 4 -12 1 -19z m70 -170 c-3 -8 -6 -5 -6 6 -1 11 2 17 5 13 3 -3 4
-12 1 -19z m23 -78 c0 -5 -4 -10 -10 -10 -5 0 -10 5 -10 10 0 6 5 10 10 10 6
0 10 -4 10 -10z m75 -39 c3 -5 1 -12 -5 -16 -5 -3 -10 1 -10 9 0 18 6 21 15 7z
m30 -21 c3 -5 1 -10 -4 -10 -6 0 -11 5 -11 10 0 6 2 10 4 10 3 0 8 -4 11 -10z
m258 -67 c-7 -2 -19 -2 -25 0 -7 3 -2 5 12 5 14 0 19 -2 13 -5z m4 -29 c-3 -3
-12 -4 -19 -1 -8 3 -5 6 6 6 11 1 17 -2 13 -5z m278 -44 c3 -5 1 -10 -4 -10
-6 0 -11 5 -11 10 0 6 2 10 4 10 3 0 8 -4 11 -10z m72 -6 c-3 -3 -12 -4 -19
-1 -8 3 -5 6 6 6 11 1 17 -2 13 -5z m139 -32 c-5 -8 -66 -4 -66 4 0 2 16 4 36
4 19 0 33 -4 30 -8z m171 -49 c-9 -2 -14 -9 -11 -15 4 -7 2 -8 -5 -4 -15 10
-4 26 17 25 15 -1 15 -2 -1 -6z m60 -9 c-3 -3 -12 -4 -19 -1 -8 3 -5 6 6 6 11
1 17 -2 13 -5z m81 -21 c-10 -2 -26 -2 -35 0 -10 3 -2 5 17 5 19 0 27 -2 18
-5z m-1168 -23 c0 -5 -2 -10 -4 -10 -3 0 -8 5 -11 10 -3 6 -1 10 4 10 6 0 11
-4 11 -10z"/>
<path d="M10981 8007 c-56 -342 -108 -648 -113 -679 l-10 -58 -701 -2 -702 -3
1 -70 c1 -38 2 -80 3 -93 l1 -22 792 2 792 3 127 760 c70 418 128 766 128 773
1 9 -27 12 -106 12 l-108 0 -104 -623z"/>
<path d="M4586 7001 c-4 -6 -1 -11 6 -11 9 0 9 -3 -2 -10 -13 -8 -13 -10 2
-10 9 0 19 -6 22 -12 3 -10 8 -9 18 3 7 9 19 14 27 11 10 -3 10 -6 1 -12 -7
-5 -2 -7 14 -7 27 0 27 0 -9 24 -19 13 -40 21 -46 17 -6 -4 -15 -1 -19 6 -5 9
-9 9 -14 1z m49 -21 c-3 -5 -11 -10 -16 -10 -6 0 -7 5 -4 10 3 6 11 10 16 10
6 0 7 -4 4 -10z"/>
<path d="M4545 6974 c-11 -8 -18 -23 -17 -32 5 -22 -26 -44 -47 -33 -13 7 -16
4 -17 -15 -1 -13 3 -24 9 -24 6 0 7 3 3 7 -3 4 8 12 26 17 18 6 38 22 45 36 8
15 20 24 30 22 17 -2 17 -2 0 8 -9 6 -15 15 -12 21 8 13 3 11 -20 -7z m10 -14
c-3 -5 -12 -10 -18 -10 -7 0 -6 4 3 10 19 12 23 12 15 0z"/>
<path d="M4490 6935 c-10 -12 -10 -15 4 -15 9 0 16 7 16 15 0 8 -2 15 -4 15
-2 0 -9 -7 -16 -15z"/>
<path d="M4720 6926 c0 -7 63 -36 68 -32 2 3 -10 12 -27 20 -31 16 -41 19 -41
12z"/>
<path d="M4430 6885 c-7 -9 -8 -15 -2 -15 5 0 12 7 16 15 3 8 4 15 2 15 -2 0
-9 -7 -16 -15z"/>
<path d="M4536 6884 c-17 -12 -17 -14 -4 -14 9 0 20 5 23 11 11 17 2 18 -19 3z"/>
<path d="M4734 6885 c8 -8 20 -15 27 -15 7 0 4 6 -7 15 -25 19 -40 19 -20 0z"/>
<path d="M4795 6880 c-7 -11 0 -13 30 -10 16 1 18 -1 8 -11 -18 -18 -16 -34 2
-19 13 10 19 10 35 -5 11 -10 17 -21 15 -25 -3 -5 5 -6 17 -3 19 4 21 3 8 -7
-16 -13 -10 -12 34 6 15 6 17 4 11 -6 -5 -8 -4 -11 3 -6 6 4 12 -4 14 -21 2
-22 10 -30 43 -39 l40 -12 -37 -1 c-21 -1 -38 4 -41 12 -2 6 -8 8 -13 4 -25
-24 62 -33 110 -12 15 6 17 5 11 -5 -5 -9 -4 -11 4 -6 9 6 9 11 0 22 -17 21
-91 56 -86 41 2 -7 13 -13 25 -15 11 -2 26 -10 32 -18 16 -18 11 -18 -34 1
-24 10 -36 22 -36 35 0 25 -49 51 -80 43 -19 -5 -22 -3 -17 11 4 9 3 15 -2 12
-5 -3 -19 2 -32 12 -32 25 -57 33 -64 22z"/>
<path d="M4376 6834 c-11 -7 -17 -17 -13 -20 3 -4 14 1 23 10 21 22 15 28 -10
10z"/>
<path d="M4840 6810 c0 -5 7 -10 16 -10 8 0 12 5 9 10 -3 6 -10 10 -16 10 -5
0 -9 -4 -9 -10z"/>
<path d="M4340 6800 c0 -5 5 -10 10 -10 6 0 10 5 10 10 0 6 -4 10 -10 10 -5 0
-10 -4 -10 -10z"/>
<path d="M4800 6800 c0 -6 7 -10 15 -10 8 0 15 2 15 4 0 2 -7 6 -15 10 -8 3
-15 1 -15 -4z"/>
<path d="M4280 6723 c-30 -47 -39 -93 -19 -93 5 0 8 4 5 8 -8 13 12 78 28 91
10 9 13 5 14 -19 0 -17 -3 -28 -8 -25 -9 6 -20 -19 -19 -43 0 -13 3 -11 11 6
6 12 15 22 19 22 5 0 7 22 6 50 -1 27 -3 50 -5 50 -1 0 -16 -21 -32 -47z"/>
<path d="M5123 6666 c1 -20 2 -36 2 -36 0 0 8 9 17 19 15 18 15 21 -2 36 -18
16 -19 15 -17 -19z"/>
<path d="M4311 6644 c0 -11 3 -14 6 -6 3 7 2 16 -1 19 -3 4 -6 -2 -5 -13z"/>
<path d="M5164 6624 c18 -17 21 -44 6 -44 -5 0 -10 7 -10 15 0 8 -3 15 -7 15
-5 0 -8 -13 -8 -30 0 -31 9 -40 18 -17 4 9 8 9 15 -1 7 -11 11 -9 15 8 6 23
-18 70 -35 70 -5 0 -2 -7 6 -16z"/>
<path d="M4226 6611 c-3 -4 -10 -21 -16 -37 l-10 -29 20 25 c11 14 20 31 20
38 0 14 -6 16 -14 3z"/>
<path d="M5122 6580 c0 -14 2 -19 5 -12 2 6 2 18 0 25 -3 6 -5 1 -5 -13z"/>
<path d="M4221 6534 c0 -11 3 -14 6 -6 3 7 2 16 -1 19 -3 4 -6 -2 -5 -13z"/>
<path d="M4562 6482 c-2 -50 1 -63 9 -52 8 11 9 7 4 -17 -4 -22 -3 -33 5 -33
6 0 8 4 5 10 -3 5 -1 18 4 29 8 14 7 20 -4 25 -8 3 -15 10 -15 16 0 6 6 8 13
4 8 -6 8 -3 -1 9 -15 17 -7 61 9 52 5 -4 6 2 2 11 -5 13 -8 14 -11 5 -3 -9 -7
-10 -11 -2 -4 6 -8 -20 -9 -57z"/>
<path d="M4985 6540 c3 -5 8 -10 11 -10 2 0 4 5 4 10 0 6 -5 10 -11 10 -5 0
-7 -4 -4 -10z"/>
<path d="M5017 6543 c-11 -10 -8 -27 6 -47 12 -17 14 -15 13 18 -1 35 -6 43
-19 29z"/>
<path d="M4202 6515 c0 -16 2 -22 5 -12 2 9 2 23 0 30 -3 6 -5 -1 -5 -18z"/>
<path d="M5212 6515 c0 -16 2 -22 5 -12 2 9 2 23 0 30 -3 6 -5 -1 -5 -18z"/>
<path d="M4615 6520 c3 -5 8 -10 11 -10 2 0 4 5 4 10 0 6 -5 10 -11 10 -5 0
-7 -4 -4 -10z"/>
<path d="M4960 6510 c0 -11 7 -17 17 -16 12 1 20 -11 28 -39 8 -27 14 -35 18
-25 4 8 5 4 3 -10 -2 -14 -1 -34 4 -45 5 -14 7 -8 6 20 -3 51 -36 123 -58 129
-12 3 -18 -2 -18 -14z"/>
<path d="M4216 6476 c-8 -32 3 -64 15 -44 5 7 9 18 9 23 0 6 -5 3 -10 -5 -9
-13 -10 -13 -10 1 0 8 5 20 11 26 7 7 7 13 1 17 -5 3 -13 -5 -16 -18z"/>
<path d="M4630 6483 c0 -16 -2 -16 -11 -3 -8 11 -9 9 -4 -10 11 -40 21 -43 22
-5 1 19 -1 35 -3 35 -2 0 -4 -8 -4 -17z"/>
<path d="M5205 6430 c0 -27 3 -43 7 -37 10 16 10 75 1 80 -5 3 -8 -17 -8 -43z"/>
<path d="M4966 6379 c2 -67 0 -76 -14 -74 -9 1 -11 0 -4 -2 17 -6 15 -23 -3
-23 -8 0 -15 -7 -15 -15 0 -19 -37 -41 -75 -44 -8 0 -15 -6 -15 -12 0 -5 8 -9
18 -7 9 1 22 -1 29 -5 7 -4 20 4 32 20 11 16 25 33 30 39 27 33 52 144 32 144
-5 0 -12 12 -14 28 -2 15 -3 -7 -1 -49z m-56 -164 c-7 -9 -15 -13 -19 -10 -3
3 1 10 9 15 21 14 24 12 10 -5z"/>
<path d="M4599 6411 c-5 -15 8 -64 24 -89 5 -7 2 -14 -7 -18 -9 -3 -16 -13
-16 -22 0 -12 5 -11 21 7 20 22 21 24 6 59 -9 20 -18 46 -20 57 -2 14 -4 16
-8 6z"/>
<path d="M4267 6386 c-3 -7 8 -26 24 -42 16 -15 29 -23 29 -16 0 6 -5 14 -10
17 -6 4 -7 11 -4 17 4 7 2 8 -4 4 -7 -4 -17 -4 -23 0 -8 5 -8 9 1 14 8 5 8 10
2 14 -5 3 -12 0 -15 -8z"/>
<path d="M4656 6374 c-9 -24 -2 -26 12 -4 7 11 8 20 3 20 -5 0 -12 -7 -15 -16z"/>
<path d="M4690 6385 c0 -5 5 -17 10 -25 5 -8 10 -10 10 -5 0 6 -5 17 -10 25
-5 8 -10 11 -10 5z"/>
<path d="M3916 6351 c-11 -12 -16 -30 -13 -48 4 -27 4 -27 6 5 1 34 19 42 43
19 7 -8 18 -12 25 -10 19 7 30 -29 28 -92 -1 -33 0 -53 3 -45 3 8 8 17 11 20
3 3 11 14 17 25 9 17 5 28 -21 65 -18 25 -38 44 -45 42 -7 -2 -10 3 -7 12 4
11 1 13 -10 9 -11 -4 -14 -2 -9 5 12 19 -9 14 -28 -7z m113 -95 c9 -10 8 -15
-2 -19 -8 -3 -13 3 -13 14 0 23 0 23 15 5z"/>
<path d="M4562 6350 c0 -14 2 -19 5 -12 2 6 2 18 0 25 -3 6 -5 1 -5 -13z"/>
<path d="M5211 6363 c-1 -6 -4 -20 -7 -30 -5 -17 -5 -17 6 0 6 10 9 23 6 30
-3 9 -5 9 -5 0z"/>
<path d="M4580 6345 c0 -8 5 -15 10 -15 6 0 10 7 10 15 0 8 -4 15 -10 15 -5 0
-10 -7 -10 -15z"/>
<path d="M4677 6354 c-4 -4 -7 -21 -6 -38 1 -30 1 -31 10 -6 8 22 8 20 5 -10
-2 -19 0 -44 5 -55 5 -14 8 -5 8 30 0 54 -10 90 -22 79z"/>
<path d="M5015 6329 c-4 -6 -5 -13 -2 -16 3 -3 -5 -23 -19 -44 -13 -21 -20
-39 -15 -39 5 0 13 10 17 22 l6 21 13 -22 c10 -20 13 -21 18 -6 9 23 9 27 -3
20 -7 -4 -8 8 -4 34 6 40 2 52 -11 30z"/>
<path d="M4567 6309 c7 -7 15 -10 18 -7 3 3 -2 9 -12 12 -14 6 -15 5 -6 -5z"/>
<path d="M4347 6303 c-7 -12 81 -74 89 -62 3 6 -3 13 -14 16 -13 3 -18 11 -15
19 4 10 0 12 -11 8 -11 -4 -16 -2 -14 7 3 14 -27 25 -35 12z"/>
<path d="M4453 6299 c9 -5 17 -17 17 -26 0 -13 -3 -14 -12 -5 -7 7 -17 12 -22
12 -6 0 -3 -7 7 -15 20 -14 47 -10 47 7 0 14 -27 38 -42 38 -8 0 -7 -4 5 -11z"/>
<path d="M4490 6300 c0 -5 5 -10 10 -10 6 0 10 5 10 10 0 6 -4 10 -10 10 -5 0
-10 -4 -10 -10z"/>
<path d="M4530 6282 c0 -18 5 -32 10 -32 6 0 8 11 4 28 -10 39 -14 40 -14 4z"/>
<path d="M5122 6290 c0 -14 2 -19 5 -12 2 6 2 18 0 25 -3 6 -5 1 -5 -13z"/>
<path d="M5172 6273 c-10 -34 -10 -36 3 -19 13 17 21 56 12 56 -2 0 -9 -17
-15 -37z"/>
<path d="M4880 6280 c0 -10 5 -22 10 -25 6 -3 10 -4 10 -1 0 2 3 11 6 19 3 8
-2 17 -10 20 -11 5 -16 0 -16 -13z"/>
<path d="M5331 6283 c0 -4 4 -17 9 -28 8 -19 9 -19 9 2 1 12 -3 25 -9 28 -5 3
-10 3 -9 -2z"/>
<path d="M3881 6258 c-1 -16 4 -28 9 -28 13 0 13 -77 0 -83 -6 -3 -5 -4 2 -3
17 3 23 63 9 90 -5 12 -12 28 -14 36 -3 8 -6 3 -6 -12z"/>
<path d="M4500 6265 c0 -8 5 -15 10 -15 6 0 10 7 10 15 0 8 -4 15 -10 15 -5 0
-10 -7 -10 -15z"/>
<path d="M4626 6263 c-8 -27 -1 -58 14 -58 7 0 14 6 16 13 1 7 0 8 -3 2 -9
-18 -19 -11 -21 16 -1 14 2 23 8 19 6 -3 10 1 10 9 0 22 -17 20 -24 -1z"/>
<path d="M4580 6263 c0 -4 5 -15 10 -23 8 -13 10 -13 10 2 0 9 -4 20 -10 23
-5 3 -10 3 -10 -2z"/>
<path d="M5365 6253 c4 -14 2 -23 -4 -23 -6 0 -11 -5 -11 -11 0 -5 5 -7 12 -3
8 5 9 0 5 -17 -4 -13 -7 -31 -8 -39 0 -10 -3 -8 -9 5 -11 25 -11 -1 0 -35 7
-21 8 -22 9 -5 1 11 8 38 16 59 12 34 12 43 -1 65 -13 23 -14 23 -9 4z"/>
<path d="M4712 6240 c0 -14 2 -19 5 -12 2 6 2 18 0 25 -3 6 -5 1 -5 -13z"/>
<path d="M4445 6230 c-3 -6 1 -7 9 -4 18 7 21 14 7 14 -6 0 -13 -4 -16 -10z"/>
<path d="M4480 6213 c0 -23 -2 -25 -11 -13 -9 12 -10 12 -5 -3 3 -10 6 -21 6
-24 0 -2 7 2 15 11 17 16 20 56 5 56 -5 0 -10 -12 -10 -27z"/>
<path d="M4545 6230 c-6 -10 1 -14 18 -11 5 1 6 -7 2 -18 -3 -11 -1 -22 5 -26
6 -3 8 -11 5 -16 -3 -5 1 -6 10 -3 14 6 14 8 -2 19 -10 8 -15 17 -11 20 4 4
14 0 23 -9 9 -9 19 -16 23 -16 3 0 -9 16 -28 35 -38 39 -37 39 -45 25z"/>
<path d="M4050 6221 c0 -11 29 -35 35 -29 2 2 -4 12 -15 21 -11 9 -20 13 -20
8z"/>
<path d="M5130 6220 c-6 -4 -8 -14 -4 -23 9 -25 23 -21 17 6 -3 16 -2 18 5 9
8 -11 10 -11 15 0 5 15 -14 20 -33 8z"/>
<path d="M5325 6200 c-11 -44 -8 -72 10 -107 19 -37 19 -15 0 31 -12 28 -13
41 -5 57 6 11 10 28 8 37 -2 10 -7 3 -13 -18z"/>
<path d="M4690 6200 c0 -5 5 -10 11 -10 5 0 7 5 4 10 -3 6 -8 10 -11 10 -2 0
-4 -4 -4 -10z"/>
<path d="M4660 6191 c0 -6 4 -13 10 -16 6 -3 7 1 4 9 -7 18 -14 21 -14 7z"/>
<path d="M4811 6176 c-13 -33 -9 -43 8 -22 7 8 11 23 8 33 -3 14 -6 12 -16
-11z"/>
<path d="M4935 6192 c4 -7 1 -21 -7 -30 -12 -15 -11 -16 4 -4 13 10 17 10 21
0 3 -7 6 -8 6 -2 1 5 -6 19 -15 30 -8 10 -13 13 -9 6z"/>
<path d="M5392 6188 c-14 -14 -16 -38 -3 -38 5 0 12 8 14 18 4 16 5 16 6 0 0
-10 6 -18 11 -18 9 0 0 29 -15 47 -1 2 -7 -3 -13 -9z"/>
<path d="M4035 6170 c3 -5 13 -10 21 -10 8 0 12 5 9 10 -3 6 -13 10 -21 10 -8
0 -12 -4 -9 -10z"/>
<path d="M4106 6158 c10 -13 28 -31 39 -40 11 -9 20 -25 20 -35 0 -11 7 -18
19 -18 11 0 21 -6 24 -13 2 -6 11 -12 20 -12 12 0 13 -3 5 -11 -8 -8 -18 -6
-36 6 -14 9 -30 15 -34 13 -4 -2 -9 6 -11 18 -2 16 -9 20 -32 16 -25 -4 -28
-7 -20 -23 6 -10 42 -39 81 -65 61 -40 74 -45 93 -35 20 11 19 11 -6 8 -30 -5
-38 7 -12 17 8 3 12 11 8 17 -5 8 -10 6 -16 -5 -5 -9 -16 -16 -24 -16 -8 0
-12 5 -9 10 4 6 3 9 -2 8 -4 -1 -21 5 -38 15 -27 14 -28 16 -8 17 12 0 25 -4
28 -10 8 -13 45 -13 45 0 0 7 7 7 21 0 11 -7 23 -9 26 -7 3 3 -10 13 -28 22
-18 10 -62 46 -97 81 -64 64 -92 84 -56 42z m79 -78 c3 -5 1 -10 -4 -10 -6 0
-11 5 -11 10 0 6 2 10 4 10 3 0 8 -4 11 -10z m-47 -22 c19 -19 14 -29 -8 -16
-20 13 -27 28 -12 28 4 0 13 -5 20 -12z"/>
<path d="M4510 6167 c0 -8 -6 -18 -12 -20 -7 -3 0 -4 15 -3 27 3 64 26 40 26
-6 0 -18 3 -27 6 -10 4 -16 1 -16 -9z"/>
<path d="M4828 6145 c-40 -47 -35 -55 7 -11 19 21 35 39 35 42 0 12 -18 -1
-42 -31z"/>
<path d="M4620 6159 c-13 -9 -13 -10 0 -6 8 2 23 -5 33 -16 9 -11 17 -16 17
-10 0 20 -35 42 -50 32z"/>
<path d="M4700 6159 c0 -8 7 -27 15 -43 16 -30 21 -61 6 -37 -6 9 -8 5 -8 -13
0 -15 3 -29 8 -32 5 -3 9 0 9 6 0 6 4 9 9 6 5 -3 14 1 21 9 9 10 9 15 1 15 -6
0 -11 -5 -11 -11 0 -5 -4 -8 -9 -4 -12 7 7 65 20 65 5 0 9 5 9 10 0 15 -17 12
-36 -7 -17 -17 -17 -17 -12 4 4 13 0 27 -8 34 -11 9 -14 8 -14 -2z"/>
<path d="M5049 6146 c-1 -1 -2 -17 -4 -36 -1 -19 0 -29 2 -22 3 6 9 12 15 12
6 0 7 -8 4 -17 -4 -12 1 -10 14 6 12 13 19 30 16 37 -3 7 0 14 7 17 7 2 -3 4
-20 4 -18 0 -33 -1 -34 -1z m30 -19 c15 -19 2 -29 -15 -12 -8 7 -14 16 -14 19
0 11 17 6 29 -7z"/>
<path d="M3910 6120 c0 -11 -4 -20 -10 -20 -5 0 -10 5 -10 12 0 6 -3 8 -6 5
-4 -4 -1 -13 5 -21 7 -8 10 -19 7 -24 -3 -5 0 -9 7 -9 7 0 13 17 14 39 2 21 0
38 -2 38 -3 0 -5 -9 -5 -20z"/>
<path d="M4030 6130 c0 -5 5 -10 10 -10 6 0 10 5 10 10 0 6 -4 10 -10 10 -5 0
-10 -4 -10 -10z"/>
<path d="M4070 6130 c0 -5 7 -10 15 -10 8 0 15 5 15 10 0 6 -7 10 -15 10 -8 0
-15 -4 -15 -10z"/>
<path d="M5275 6088 c-31 -54 -45 -85 -26 -58 5 8 13 11 17 7 11 -10 -16 -36
-32 -30 -8 3 -14 0 -14 -6 0 -16 26 -13 45 5 9 9 13 24 10 35 -4 10 -3 19 2
19 10 0 36 57 31 70 -1 5 -16 -14 -33 -42z"/>
<path d="M4000 6125 c0 -10 32 -66 49 -87 16 -20 31 -24 31 -8 0 6 -6 10 -14
10 -7 0 -20 15 -27 33 -13 31 -39 66 -39 52z"/>
<path d="M4515 6100 c5 -23 4 -30 -4 -26 -6 4 -9 2 -6 -6 6 -14 -24 -53 -47
-61 -7 -2 -9 -8 -5 -13 4 -5 12 -2 16 5 5 7 13 11 19 7 6 -3 13 3 17 14 7 23
21 26 28 8 3 -8 6 -6 6 5 1 9 -3 17 -8 17 -6 0 -7 15 -4 34 3 21 1 36 -7 41
-9 6 -10 -1 -5 -25z"/>
<path d="M4542 6110 c0 -14 2 -19 5 -12 2 6 2 18 0 25 -3 6 -5 1 -5 -13z"/>
<path d="M4846 6105 c-16 -14 -26 -28 -22 -32 4 -4 11 -1 15 6 6 9 11 10 15 2
13 -20 22 -12 22 19 0 17 0 30 0 30 -1 0 -14 -11 -30 -25z m24 -5 c0 -5 -5
-10 -11 -10 -5 0 -7 5 -4 10 3 6 8 10 11 10 2 0 4 -4 4 -10z"/>
<path d="M4106 6111 c-3 -5 1 -11 9 -15 8 -3 15 -1 15 4 0 13 -18 22 -24 11z"/>
<path d="M4644 6094 c0 -12 6 -20 12 -17 7 3 10 -6 8 -24 -2 -17 -1 -20 3 -8
3 11 9 22 13 25 5 3 -2 15 -15 26 l-23 20 2 -22z"/>
<path d="M4060 6095 c7 -8 16 -12 21 -9 16 9 10 20 -12 21 -17 2 -18 -1 -9
-12z"/>
<path d="M4765 6099 c-4 -6 -5 -13 -2 -16 7 -7 27 6 27 18 0 12 -17 12 -25 -2z"/>
<path d="M5440 6096 c0 -8 4 -17 9 -20 5 -4 7 3 4 14 -6 23 -13 26 -13 6z"/>
<path d="M4962 6050 c0 -14 2 -19 5 -12 2 6 2 18 0 25 -3 6 -5 1 -5 -13z"/>
<path d="M4985 6040 c0 -16 3 -30 8 -30 4 0 7 14 7 30 0 17 -3 30 -7 30 -5 0
-8 -13 -8 -30z"/>
<path d="M4770 6035 c-6 -7 -13 -21 -14 -29 -1 -9 -13 -27 -26 -41 -24 -26
-14 -33 21 -15 10 6 19 19 19 30 0 22 17 35 22 18 3 -7 5 2 5 20 0 35 -8 40
-27 17z m10 -15 c-6 -11 -13 -20 -16 -20 -2 0 0 9 6 20 6 11 13 20 16 20 2 0
0 -9 -6 -20z"/>
<path d="M5423 6026 c-17 -17 -19 -23 -8 -23 8 0 15 4 15 9 0 4 7 8 15 8 10 0
15 -10 15 -27 0 -14 3 -24 6 -20 8 8 -5 77 -14 76 -4 -1 -17 -11 -29 -23z"/>
<path d="M4681 6002 c-1 -30 -2 -32 -17 -18 -23 24 -27 19 -7 -8 14 -19 20
-21 26 -10 5 8 6 27 4 42 -4 24 -4 24 -6 -6z"/>
<path d="M5010 6006 c-5 -13 -14 -27 -19 -31 -6 -3 -16 -15 -22 -27 -19 -35 8
-11 41 38 17 24 26 44 20 44 -6 0 -15 -11 -20 -24z"/>
<path d="M4000 6003 c0 -16 -2 -16 -11 -3 -8 11 -9 9 -3 -10 6 -22 5 -23 -10
-11 -12 10 -16 10 -16 1 0 -9 -4 -9 -17 1 -33 28 3 -25 44 -61 51 -48 84 -70
103 -70 8 1 2 7 -15 15 -57 27 -86 59 -81 89 7 40 25 59 43 45 15 -13 28 -6
18 10 -11 19 -55 13 -55 -6z m-10 -49 c0 -2 -7 -4 -15 -4 -8 0 -15 4 -15 10 0
5 7 7 15 4 8 -4 15 -8 15 -10z"/>
<path d="M4085 6009 c-4 -6 -5 -12 -2 -15 2 -3 7 2 10 11 7 17 1 20 -8 4z"/>
<path d="M4551 6004 c0 -11 3 -14 6 -6 3 7 2 16 -1 19 -3 4 -6 -2 -5 -13z"/>
<path d="M4295 6000 c-3 -6 1 -7 9 -4 9 3 16 2 16 -4 0 -6 -6 -13 -12 -15 -7
-3 -8 -6 -3 -6 6 0 17 4 25 9 13 9 13 11 0 20 -19 12 -27 12 -35 0z"/>
<path d="M4113 5979 c1 -12 11 -25 23 -29 12 -5 25 -14 29 -19 3 -6 12 -11 18
-11 7 0 6 4 -3 10 -8 5 -11 12 -8 15 4 4 17 0 30 -9 13 -9 17 -16 9 -16 -8 0
-12 -2 -10 -5 3 -2 15 -2 27 2 20 5 19 7 -15 25 -21 11 -44 21 -52 23 -7 1
-19 9 -26 18 -16 23 -24 21 -22 -4z"/>
<path d="M4362 5970 c-8 -13 -8 -20 -2 -20 6 0 13 7 17 15 9 24 -1 27 -15 5z"/>
<path d="M4641 5953 c-1 -12 4 -25 9 -28 12 -7 12 2 0 30 -8 19 -9 19 -9 -2z"/>
<path d="M5187 5964 c-3 -3 -3 -13 0 -22 5 -12 2 -14 -13 -8 -14 5 -16 4 -7
-5 15 -15 32 -4 30 21 -1 22 -1 22 -10 14z"/>
<path d="M4080 5950 c0 -12 32 -50 42 -50 5 0 2 14 -7 30 -15 29 -35 40 -35
20z"/>
<path d="M4290 5950 c-13 -9 -13 -10 0 -9 8 0 24 4 35 9 l20 9 -20 0 c-11 0
-27 -4 -35 -9z"/>
<path d="M4385 5940 c3 -5 8 -10 11 -10 2 0 4 5 4 10 0 6 -5 10 -11 10 -5 0
-7 -4 -4 -10z"/>
<path d="M4767 5933 c-9 -10 -27 -18 -40 -18 -16 0 -22 -6 -24 -25 -1 -24 -1
-24 4 -2 4 19 9 23 26 18 24 -6 34 -1 56 27 17 22 1 22 -22 0z"/>
<path d="M5440 5939 c0 -5 5 -7 10 -4 6 3 10 8 10 11 0 2 -4 4 -10 4 -5 0 -10
-5 -10 -11z"/>
<path d="M4355 5919 c22 -10 49 -18 60 -18 13 1 9 5 -12 11 -18 6 -33 15 -33
19 0 5 -12 9 -27 8 -26 -1 -26 -2 12 -20z"/>
<path d="M3853 5914 c3 -5 2 -28 -3 -52 -6 -33 -4 -42 7 -42 8 0 12 4 8 9 -3
5 -1 12 5 16 5 3 10 14 10 23 0 15 -2 15 -11 2 -8 -12 -9 -9 -5 12 4 16 1 30
-6 34 -6 4 -9 3 -5 -2z"/>
<path d="M4667 5914 c-4 -4 -7 -26 -6 -48 l1 -41 9 39 c10 42 8 62 -4 50z"/>
<path d="M5137 5914 c-3 -4 1 -17 9 -30 16 -23 11 -64 -7 -64 -12 0 -12 17 1
25 6 4 8 11 4 16 -3 6 -12 3 -20 -8 -10 -14 -13 -15 -14 -3 0 11 -3 11 -12 2
-7 -7 -17 -12 -22 -12 -6 1 2 12 19 25 42 35 27 38 -19 4 -25 -19 -33 -29 -22
-29 9 0 14 -4 11 -10 -9 -14 8 -13 23 2 8 8 15 9 22 2 7 -7 -2 -14 -29 -23
-30 -8 -39 -16 -38 -31 1 -11 4 -20 7 -20 16 0 111 63 120 79 11 21 4 51 -12
51 -6 0 -8 7 -4 15 5 15 -5 21 -17 9z m-40 -120 c-16 -8 -34 -13 -40 -11 -7 3
-1 9 13 15 38 16 59 13 27 -4z"/>
<path d="M4050 5901 c0 -5 7 -11 15 -15 8 -3 15 -1 15 3 0 5 -7 11 -15 15 -8
3 -15 1 -15 -3z"/>
<path d="M4450 5901 c0 -6 9 -9 19 -8 11 0 17 5 15 9 -7 11 -34 10 -34 -1z"/>
<path d="M4520 5900 c34 -11 50 -12 50 -2 0 4 -17 8 -37 9 -33 1 -35 0 -13 -7z"/>
<path d="M4590 5895 c-7 -8 -22 -15 -34 -16 -16 -1 -14 -3 8 -10 17 -4 32 -6
35 -4 2 3 -2 5 -10 5 -8 1 -3 7 10 14 13 7 19 16 13 19 -5 4 -15 0 -22 -8z"/>
<path d="M4635 5901 c3 -6 -3 -15 -12 -21 -12 -8 -13 -10 -3 -7 10 3 16 -2 16
-13 0 -12 -6 -16 -16 -12 -16 6 -15 4 13 -17 16 -12 17 -10 17 33 0 26 -5 46
-11 46 -5 0 -8 -4 -4 -9z"/>
<path d="M4926 5894 c-3 -9 -4 -20 0 -25 8 -13 -10 -11 -24 3 -6 6 -15 9 -18
5 -4 -3 0 -12 7 -20 16 -15 52 -31 45 -18 -3 4 -1 22 4 40 9 31 -3 44 -14 15z"/>
<path d="M5410 5906 c0 -2 6 -9 14 -15 10 -9 15 -8 19 2 3 8 -3 13 -14 14 -10
1 -19 0 -19 -1z"/>
<path d="M4251 5891 c-17 -11 -3 -19 44 -25 44 -6 55 -14 35 -26 -19 -12 -4
-13 18 -1 9 5 40 11 67 14 l50 6 -45 -13 -45 -13 54 2 c38 1 55 6 56 16 2 9
-8 15 -29 16 -17 1 -42 5 -56 8 -19 4 -21 3 -10 -5 12 -8 10 -10 -12 -10 -14
0 -34 3 -44 7 -16 6 -16 7 2 14 16 6 16 8 2 8 -9 1 -20 -4 -23 -9 -4 -6 -12
-4 -21 5 -18 17 -24 18 -43 6z"/>
<path d="M5390 5886 c0 -8 -7 -17 -16 -20 -12 -5 -15 -14 -10 -37 6 -30 5 -31
-22 -25 -26 6 -26 6 -7 -9 17 -14 21 -13 39 5 17 17 34 100 20 100 -2 0 -4 -6
-4 -14z m0 -56 c0 -5 -4 -10 -10 -10 -5 0 -10 5 -10 10 0 6 5 10 10 10 6 0 10
-4 10 -10z"/>
<path d="M4094 5881 c3 -5 15 -11 26 -14 17 -4 19 -3 9 9 -12 15 -44 20 -35 5z"/>
<path d="M4508 5883 c7 -3 16 -2 19 1 4 3 -2 6 -13 5 -11 0 -14 -3 -6 -6z"/>
<path d="M4730 5863 c0 -12 5 -25 10 -28 13 -8 13 15 0 35 -8 12 -10 11 -10
-7z"/>
<path d="M5213 5854 c-9 -19 -8 -24 3 -24 8 0 14 6 14 13 0 8 3 7 10 -3 7 -12
11 -10 18 10 11 29 5 41 -9 20 -6 -11 -11 -12 -17 -3 -5 8 -11 4 -19 -13z"/>
<path d="M4508 5853 c7 -3 16 -2 19 1 4 3 -2 6 -13 5 -11 0 -14 -3 -6 -6z"/>
<path d="M4712 5840 c0 -14 2 -19 5 -12 2 6 2 18 0 25 -3 6 -5 1 -5 -13z"/>
<path d="M4530 5839 l-25 -7 26 -1 c19 -1 28 -8 33 -25 7 -30 33 -40 52 -21
13 12 12 15 -6 25 -11 6 -25 8 -30 5 -6 -3 -10 1 -10 9 0 20 -10 24 -40 15z
m75 -39 c3 -5 -1 -10 -9 -10 -9 0 -16 5 -16 10 0 6 4 10 9 10 6 0 13 -4 16
-10z"/>
<path d="M4185 5820 c4 -6 11 -8 16 -5 14 9 11 15 -7 15 -8 0 -12 -5 -9 -10z"/>
<path d="M3890 5800 c0 -16 4 -20 16 -16 9 4 23 1 30 -5 8 -6 14 -9 14 -6 0 3
-13 15 -30 27 l-30 21 0 -21z"/>
<path d="M4353 5813 c9 -2 25 -2 35 0 9 3 1 5 -18 5 -19 0 -27 -2 -17 -5z"/>
<path d="M4660 5810 c0 -5 5 -10 11 -10 5 0 7 5 4 10 -3 6 -8 10 -11 10 -2 0
-4 -4 -4 -10z"/>
<path d="M5176 5801 c-17 -19 -17 -20 2 -37 20 -17 20 -17 -15 -36 -34 -19
-71 -48 -59 -48 3 0 22 11 42 25 39 27 54 31 54 15 0 -5 -11 -12 -25 -16 -14
-4 -24 -9 -21 -12 6 -5 152 54 174 71 10 8 6 14 -15 27 -36 22 -43 16 -12 -9
19 -16 21 -20 7 -21 -9 0 -18 3 -21 8 -2 4 -2 2 -1 -5 4 -17 -26 -24 -61 -15
-26 7 -30 13 -29 40 0 18 -1 32 -1 32 -1 0 -10 -9 -19 -19z m57 -68 c-7 -2
-19 -2 -25 0 -7 3 -2 5 12 5 14 0 19 -2 13 -5z"/>
<path d="M4210 5807 c7 -7 167 -47 182 -46 15 1 -102 35 -152 44 -19 4 -33 5
-30 2z"/>
<path d="M5454 5788 c-4 -12 -14 -29 -23 -36 -9 -8 -10 -11 -4 -7 8 4 11 1 7
-9 -3 -8 -11 -14 -17 -12 -7 1 -9 1 -4 -1 13 -8 7 -25 -7 -20 -8 3 -24 -6 -37
-21 -13 -14 -17 -22 -9 -16 8 6 27 10 41 9 17 -1 25 4 22 11 -2 6 2 18 11 26
8 8 19 32 25 53 11 42 8 62 -5 23z"/>
<path d="M4350 5796 c0 -2 11 -6 25 -8 14 -3 25 -1 25 3 0 5 -11 9 -25 9 -14
0 -25 -2 -25 -4z"/>
<path d="M3861 5774 c0 -11 3 -14 6 -6 3 7 2 16 -1 19 -3 4 -6 -2 -5 -13z"/>
<path d="M4707 5771 c-4 -17 -3 -21 5 -13 5 5 8 16 6 23 -3 8 -7 3 -11 -10z"/>
<path d="M4620 5768 c-14 -5 -33 -7 -42 -4 -11 2 -15 0 -12 -6 4 -6 23 -8 43
-4 l37 6 -2 -40 c-1 -22 2 -40 7 -40 5 0 9 6 9 14 0 8 3 23 6 33 5 15 4 16 -6
3 -10 -13 -11 -12 -7 6 7 32 -4 43 -33 32z"/>
<path d="M3927 5759 c7 -7 15 -10 18 -7 3 3 -2 9 -12 12 -14 6 -15 5 -6 -5z"/>
<path d="M5110 5734 c-25 -12 -61 -30 -80 -38 -43 -19 -29 -20 25 -3 46 15
105 48 105 60 0 4 -1 6 -2 6 -2 -1 -23 -12 -48 -25z"/>
<path d="M3870 5740 c0 -5 5 -10 10 -10 6 0 10 5 10 10 0 6 -4 10 -10 10 -5 0
-10 -4 -10 -10z"/>
<path d="M3900 5727 c0 -14 5 -29 10 -32 7 -4 8 3 4 22 -9 38 -14 42 -14 10z"/>
<path d="M4410 5740 c8 -5 20 -10 25 -10 6 0 3 5 -5 10 -8 5 -19 10 -25 10 -5
0 -3 -5 5 -10z"/>
<path d="M4536 5736 c10 -8 21 -12 24 -10 5 6 -21 24 -34 24 -6 0 -1 -6 10
-14z"/>
<path d="M4885 5718 c1 -15 4 -30 8 -33 4 -3 5 -2 2 1 -9 13 28 37 62 40 20 1
39 6 44 11 11 11 -49 9 -75 -2 -12 -5 -17 -5 -13 1 3 5 -2 10 -12 10 -13 0
-17 -8 -16 -28z"/>
<path d="M5033 5725 c-29 -13 -53 -26 -53 -29 0 -9 83 25 100 40 19 18 15 17
-47 -11z"/>
<path d="M4003 5716 c0 -28 38 -50 71 -40 11 4 18 3 13 -2 -4 -4 18 -18 50
-31 63 -26 98 -31 43 -7 -19 9 -42 20 -50 25 -49 29 -91 47 -80 33 14 -16 3
-19 -19 -5 -7 5 -11 13 -7 19 3 5 0 15 -8 21 -11 9 -13 6 -13 -13z"/>
<path d="M4477 5722 c6 -15 5 -15 -10 -3 -9 7 -17 9 -17 4 0 -5 11 -15 24 -22
13 -7 30 -24 37 -37 l13 -25 19 31 c11 17 17 33 14 37 -4 3 -12 -6 -18 -20 -7
-15 -16 -24 -21 -21 -4 3 -6 10 -3 15 4 5 -4 14 -17 19 -22 10 -22 10 5 7 36
-5 35 8 -2 21 -26 9 -29 8 -24 -6z"/>
<path d="M4695 5729 c-4 -6 -5 -12 -2 -15 2 -3 7 2 10 11 7 17 1 20 -8 4z"/>
<path d="M5462 5720 c0 -14 2 -19 5 -12 2 6 2 18 0 25 -3 6 -5 1 -5 -13z"/>
<path d="M3856 5698 c4 -13 8 -32 9 -43 0 -11 9 -44 19 -74 13 -38 21 -49 27
-40 5 8 9 19 9 24 0 6 -4 4 -9 -4 -6 -9 -7 8 -4 47 4 40 2 62 -5 62 -6 0 -8
-17 -6 -42 6 -57 -12 -20 -21 46 -4 25 -12 46 -17 46 -5 0 -6 -10 -2 -22z"/>
<path d="M3880 5696 c0 -22 3 -27 11 -19 8 8 8 16 0 30 -9 16 -10 14 -11 -11z"/>
<path d="M4705 5689 c-4 -6 -5 -12 -2 -15 2 -3 7 2 10 11 7 17 1 20 -8 4z"/>
<path d="M4919 5664 c-7 -9 -23 -20 -35 -25 -24 -9 -104 -103 -104 -122 0 -8
3 -7 9 2 6 9 10 10 16 2 5 -9 11 -9 23 1 12 10 16 10 19 1 3 -7 9 -13 14 -13
5 0 4 9 -3 19 -9 15 -16 17 -31 9 -25 -13 -37 0 -14 16 9 7 17 18 17 24 0 13
41 43 51 37 4 -3 10 2 13 11 4 12 14 14 36 9 19 -4 30 -3 30 4 0 6 -7 11 -15
11 -21 0 -19 18 3 23 14 4 14 5 1 6 -9 0 -23 -6 -30 -15z"/>
<path d="M5045 5640 c3 -29 0 -38 -8 -34 -7 4 -9 4 -5 -1 4 -4 3 -14 -3 -21
-6 -8 -6 -14 0 -18 5 -4 12 2 16 13 3 11 24 36 47 56 27 25 34 35 19 30 -12
-4 -21 -2 -21 4 0 6 -11 11 -24 11 -23 0 -24 -3 -21 -40z m33 22 c9 -7 8 -13
-8 -27 -11 -10 -20 -13 -20 -7 0 6 5 14 11 18 8 4 7 9 -2 15 -8 5 -9 9 -4 9 6
0 16 -4 23 -8z"/>
<path d="M4632 5654 c-7 -7 -12 -17 -11 -20 0 -4 -4 -10 -11 -14 -7 -4 0 -12
19 -20 17 -7 31 -18 31 -24 0 -6 5 -4 10 4 7 11 8 2 4 -27 -6 -41 -5 -43 18
-41 20 2 24 6 19 23 -4 17 -6 18 -9 3 -2 -10 -8 -18 -13 -18 -12 0 -12 27 1
35 7 4 7 13 0 25 -6 11 -10 23 -9 27 1 4 0 22 -1 38 -3 25 -4 23 -10 -15 -5
-35 -7 -38 -9 -15 -2 42 -13 56 -29 39z m15 -41 c-3 -10 -5 -4 -5 12 0 17 2
24 5 18 2 -7 2 -21 0 -30z"/>
<path d="M4804 5643 c1 -29 2 -30 19 -16 18 17 23 43 7 43 -5 0 -7 -7 -4 -15
4 -8 1 -15 -4 -15 -6 0 -13 8 -15 18 -2 9 -4 3 -3 -15z"/>
<path d="M5452 5638 c-10 -30 -10 -31 3 -14 13 17 21 46 12 46 -1 0 -8 -15
-15 -32z"/>
<path d="M5333 5644 c-7 -3 -9 -13 -6 -21 5 -13 2 -15 -11 -10 -11 5 -15 3
-10 -5 5 -7 2 -9 -8 -5 -9 3 -29 -6 -49 -23 -19 -16 -29 -29 -22 -30 6 0 15 5
18 10 7 12 25 13 25 2 0 -4 -15 -13 -33 -20 -40 -14 -58 -15 -37 -2 9 6 10 10
3 10 -20 0 -25 -20 -7 -27 10 -4 34 2 56 14 21 12 38 18 38 13 0 -5 3 -17 7
-27 6 -16 5 -17 -13 -3 -18 14 -18 14 -5 -2 8 -11 9 -18 3 -18 -6 0 -14 5 -17
10 -3 6 -11 10 -18 10 -6 0 -1 -7 12 -16 22 -16 24 -15 46 8 12 13 28 35 35
49 12 21 12 23 -2 11 -13 -10 -17 -10 -21 0 -4 10 -8 10 -16 -2 -8 -11 -11
-12 -11 -2 0 7 -4 10 -10 7 -5 -3 -10 -2 -10 4 0 5 5 13 10 16 6 3 10 1 10 -5
0 -7 5 -8 13 -3 6 4 20 8 31 8 13 0 20 8 22 28 3 27 0 30 -23 21z m-13 -94 c0
-5 -4 -10 -10 -10 -5 0 -10 5 -10 10 0 6 5 10 10 10 6 0 10 -4 10 -10z"/>
<path d="M4096 5631 c5 -5 20 -12 34 -16 24 -7 24 -7 5 9 -21 16 -56 23 -39 7z"/>
<path d="M4224 5612 c4 -7 14 -12 22 -12 8 0 14 -4 14 -10 0 -5 7 -10 15 -10
21 0 19 17 -2 23 -10 2 -27 8 -37 13 -14 5 -17 4 -12 -4z"/>
<path d="M4190 5600 c8 -5 20 -10 25 -10 6 0 3 5 -5 10 -8 5 -19 10 -25 10 -5
0 -3 -5 5 -10z"/>
<path d="M4545 5593 c4 -14 -1 -26 -14 -35 -20 -14 -19 -15 9 -32 25 -14 29
-15 24 -2 -3 9 -10 13 -15 10 -5 -3 -9 1 -9 10 0 8 6 16 12 18 10 4 10 10 0
29 -10 21 -11 21 -7 2z"/>
<path d="M4900 5599 c0 -5 5 -7 10 -4 6 3 10 8 10 11 0 2 -4 4 -10 4 -5 0 -10
-5 -10 -11z"/>
<path d="M4857 5593 c-10 -9 -9 -23 2 -23 5 0 11 7 15 15 5 15 -5 20 -17 8z"/>
<path d="M4504 5579 c-5 -8 -38 -10 -108 -7 -65 4 -87 3 -61 -3 70 -14 171
-11 185 6 8 9 9 15 2 15 -6 0 -14 -5 -18 -11z"/>
<path d="M4720 5586 c0 -8 31 -36 40 -36 5 0 14 8 19 18 7 14 6 19 -4 19 -7 0
-11 -6 -8 -14 3 -7 0 -13 -6 -13 -6 0 -11 7 -11 15 0 8 -7 15 -15 15 -8 0 -15
-2 -15 -4z"/>
<path d="M5366 5582 c6 -4 17 -22 25 -39 8 -18 17 -33 21 -33 13 0 9 17 -8 31
-8 7 -13 21 -11 31 4 13 0 18 -16 18 -13 0 -17 -3 -11 -8z"/>
<path d="M5423 5583 c-17 -6 -16 -21 2 -40 14 -14 15 -13 9 12 -5 20 -4 26 5
21 6 -4 11 -2 11 3 0 12 -7 13 -27 4z"/>
<path d="M4240 5570 c0 -6 7 -10 15 -10 8 0 15 2 15 4 0 2 -7 6 -15 10 -8 3
-15 1 -15 -4z"/>
<path d="M4300 5550 c14 -4 34 -8 45 -8 16 0 15 2 -5 8 -14 4 -34 8 -45 8 -16
0 -15 -2 5 -8z"/>
<path d="M4650 5547 c0 -10 -8 -17 -19 -17 -11 0 -23 -4 -26 -10 -3 -6 5 -10
19 -10 24 0 46 33 32 47 -3 4 -6 -1 -6 -10z"/>
<path d="M4391 5536 c-9 -11 -8 -15 5 -20 9 -4 19 -4 22 -1 3 3 0 5 -6 5 -7 0
-12 5 -12 11 0 7 18 9 50 6 28 -3 50 -1 50 4 0 15 -96 11 -109 -5z"/>
<path d="M4283 5533 c10 -15 43 -22 58 -12 10 6 8 9 -8 9 -12 0 -29 3 -39 7
-11 4 -15 3 -11 -4z"/>
<path d="M5342 5517 c-26 -27 -29 -46 -5 -26 14 12 16 12 11 -1 -3 -8 -15 -14
-27 -13 -11 2 -21 -1 -21 -6 0 -5 -9 -11 -19 -14 -14 -3 -18 -11 -15 -25 7
-23 -42 -67 -60 -53 -6 5 -20 5 -31 1 -16 -6 -11 -9 23 -15 48 -8 68 3 83 44
7 17 6 27 -3 33 -7 4 -8 8 -3 8 6 0 28 -12 49 -26 31 -21 40 -24 47 -13 6 10
1 20 -14 31 -18 14 -20 19 -9 29 10 11 12 9 12 -6 0 -17 2 -18 10 -5 13 20 12
33 -1 24 -7 -4 -10 -2 -8 5 8 24 24 9 21 -20 -1 -19 2 -28 8 -24 16 10 12 50
-8 73 l-19 22 -21 -23z m28 -1 c0 -3 -4 -8 -10 -11 -5 -3 -10 -1 -10 4 0 6 5
11 10 11 6 0 10 -2 10 -4z m-25 -76 c17 -11 26 -20 22 -20 -11 0 -67 29 -67
35 0 10 16 4 45 -15z"/>
<path d="M4498 5513 c6 -2 18 -2 25 0 6 3 1 5 -13 5 -14 0 -19 -2 -12 -5z"/>
<path d="M5140 5507 c0 -15 -66 -18 -87 -4 -8 5 -13 4 -13 -2 0 -14 36 -23 61
-16 15 5 19 4 14 -5 -4 -7 -22 -10 -40 -8 -19 2 -31 0 -29 -4 3 -5 25 -7 50
-6 34 1 47 7 59 24 19 29 19 34 0 34 -8 0 -15 -6 -15 -13z"/>
<path d="M3949 5490 c13 -11 28 -20 35 -19 6 0 1 5 -11 11 -13 6 -23 15 -23
20 0 4 -6 8 -12 8 -7 -1 -2 -10 11 -20z"/>
<path d="M3986 5495 c11 -8 31 -15 46 -15 15 0 29 -4 33 -9 3 -6 -10 -8 -32
-6 -31 4 -34 3 -13 -4 14 -5 45 -9 70 -9 40 0 42 1 15 8 -16 4 -25 8 -20 10
17 3 -29 19 -58 19 -16 1 -26 5 -23 9 2 4 -5 9 -16 9 -20 2 -20 1 -2 -12z"/>
<path d="M4050 5506 c0 -2 9 -6 20 -9 11 -3 20 -1 20 4 0 5 -9 9 -20 9 -11 0
-20 -2 -20 -4z"/>
<path d="M4125 5500 c-4 -6 3 -10 14 -10 25 0 27 6 6 13 -8 4 -17 2 -20 -3z"/>
<path d="M4178 5503 c6 -2 18 -2 25 0 6 3 1 5 -13 5 -14 0 -19 -2 -12 -5z"/>
<path d="M4358 5503 c7 -3 16 -2 19 1 4 3 -2 6 -13 5 -11 0 -14 -3 -6 -6z"/>
<path d="M4425 5499 c-40 -7 -40 -7 10 -6 28 0 75 -5 105 -12 30 -7 69 -11 85
-8 24 3 21 4 -13 6 -24 0 -51 5 -60 10 -26 13 -83 18 -127 10z"/>
<path d="M5201 5489 c17 -17 18 -23 7 -36 -12 -15 -11 -15 9 -2 14 8 18 16 11
20 -6 4 -4 11 8 18 11 6 15 11 9 12 -5 1 -22 3 -37 4 l-27 4 20 -20z"/>
<path d="M4588 5493 c12 -2 32 -2 45 0 12 2 2 4 -23 4 -25 0 -35 -2 -22 -4z"/>
<path d="M4710 5489 c11 -8 6 -9 -20 -5 -31 5 -32 5 -11 -4 28 -12 56 -6 46
10 -3 5 -12 10 -18 10 -7 0 -6 -4 3 -11z"/>
<path d="M4767 5480 c-3 -12 -1 -18 5 -14 6 4 7 -2 3 -17 -7 -22 -7 -22 10 -5
15 15 16 19 4 27 -12 8 -12 10 1 19 13 8 13 10 -1 10 -9 0 -19 -9 -22 -20z"/>
<path d="M3273 5465 c-40 -14 -123 -48 -185 -76 -62 -28 -151 -62 -197 -75
-47 -13 -87 -27 -90 -30 -3 -3 -6 -83 -6 -177 0 -185 11 -246 60 -351 29 -61
86 -123 132 -142 46 -20 128 -17 228 6 164 38 257 20 270 -54 9 -45 2 -65 -38
-106 -68 -70 -182 -95 -404 -88 -78 3 -146 2 -151 -1 -57 -39 46 -174 188
-244 55 -27 75 -32 135 -31 99 1 159 24 288 111 149 101 218 133 285 133 60 0
71 -13 52 -60 -30 -72 -167 -170 -326 -233 -133 -53 -194 -63 -274 -44 -36 9
-67 13 -69 11 -10 -10 89 -98 158 -142 123 -77 211 -98 271 -67 16 9 84 67
150 130 114 107 198 165 242 165 14 0 18 -8 18 -35 0 -53 -45 -96 -157 -150
-157 -75 -178 -99 -130 -142 31 -28 100 -43 200 -43 132 0 225 37 273 108 13
19 36 91 54 170 32 135 72 258 90 276 14 14 140 -75 196 -138 61 -67 113 -144
158 -234 l37 -73 -15 -87 c-48 -284 -71 -673 -63 -1094 l6 -308 -190 0 c-201
0 -236 -7 -259 -49 -28 -53 4 -122 63 -136 20 -5 26 -14 30 -43 2 -21 27 -174
55 -342 28 -168 54 -326 57 -353 l6 -47 425 0 c233 0 424 2 424 4 0 5 43 294
70 471 11 72 25 169 31 217 10 79 13 87 36 93 59 14 91 83 63 136 -23 42 -56
48 -274 49 -113 1 -208 4 -210 8 -2 4 18 120 45 257 81 419 92 512 86 720 -3
120 -16 260 -37 420 -43 316 -47 522 -12 634 44 140 162 221 302 208 58 -5
151 -39 171 -63 11 -14 -34 -63 -193 -209 -57 -52 -69 -69 -84 -120 -43 -150
11 -377 120 -500 l35 -40 1 80 c1 180 88 425 150 425 30 0 43 -36 37 -106 -4
-54 -13 -79 -61 -163 -89 -158 -96 -257 -25 -365 50 -75 176 -152 282 -171
l37 -7 -28 30 c-84 90 -96 377 -22 522 23 45 56 68 73 51 7 -7 14 -83 19 -194
4 -100 13 -212 19 -249 14 -89 55 -171 118 -240 109 -119 210 -139 466 -93 83
15 195 30 250 33 l99 7 32 95 c42 123 58 234 52 351 -8 139 -53 230 -134 270
-36 17 -72 22 -187 28 -110 6 -152 12 -188 28 -109 49 -80 168 51 207 30 9 67
16 83 16 61 0 235 -33 325 -62 106 -34 122 -30 122 31 0 78 -122 231 -219 274
-36 17 -67 21 -146 21 -97 0 -104 -1 -240 -53 -161 -61 -249 -75 -303 -47 -38
20 -40 35 -8 73 67 79 308 153 501 153 64 0 81 -4 139 -35 78 -41 83 -32 30
46 -75 112 -188 209 -267 230 -52 14 -86 2 -225 -79 -138 -79 -215 -111 -266
-112 -38 0 -38 0 -32 32 13 63 70 96 211 119 69 11 137 38 150 59 48 77 -227
183 -385 149 -77 -17 -124 -66 -197 -210 -33 -64 -79 -145 -102 -181 l-43 -65
-70 36 c-67 34 -75 36 -172 36 -88 0 -107 -3 -149 -25 -60 -30 -132 -106 -157
-165 -52 -121 -52 -338 1 -740 57 -435 50 -556 -59 -1110 -47 -239 -47 -240
-74 -243 -24 -3 -28 1 -34 33 -3 20 -1 203 6 408 7 204 10 428 7 497 -8 153
-37 332 -77 460 -17 54 -30 106 -30 117 0 10 24 118 54 240 79 320 90 402 90
633 0 197 -5 244 -46 412 -20 79 -20 89 -6 105 8 10 14 23 11 29 -2 7 5 10 22
7 15 -3 25 -1 25 6 0 6 -11 11 -24 11 -13 0 -31 3 -40 6 -23 9 -40 -40 -23
-67 10 -17 9 -22 -6 -34 -18 -13 -18 -16 2 -95 35 -139 44 -242 38 -440 -6
-207 -21 -304 -90 -579 l-44 -173 -33 58 c-76 135 -170 238 -282 311 l-67 43
30 53 c17 28 57 88 88 132 69 96 81 128 81 211 0 78 -27 166 -77 249 -41 70
-59 84 -77 59 -15 -20 -90 -16 -92 6 -1 8 -2 21 -3 28 0 6 -11 12 -22 12 -12
0 -28 8 -36 18 -8 9 -12 11 -8 5 3 -7 0 -13 -7 -13 -8 0 -6 -5 5 -11 9 -5 17
-15 17 -22 0 -7 14 -18 30 -25 l30 -14 0 -96 c0 -100 -21 -224 -41 -248 -16
-20 -43 -17 -65 7 -12 14 -19 40 -22 82 -4 57 6 107 54 277 2 10 -12 24 -41
40 -25 14 -45 27 -45 30 0 4 -10 17 -21 29 -13 14 -18 26 -12 30 6 3 7 14 2
26 -7 19 -8 19 -8 -2 -1 -25 -21 -33 -21 -8 0 7 -7 18 -17 23 -10 6 -16 22
-16 41 0 19 -3 27 -8 19 -13 -20 -24 0 -24 42 0 36 -3 41 -35 54 -44 17 -176
31 -183 19 -3 -5 7 -17 22 -26 106 -63 190 -391 133 -520 -21 -47 -40 -58 -60
-34 -5 6 -32 91 -60 187 -63 222 -99 299 -172 370 -81 79 -155 114 -255 117
-65 3 -94 -1 -152 -22z m1597 -165 c0 -5 -5 -10 -11 -10 -5 0 -7 5 -4 10 3 6
8 10 11 10 2 0 4 -4 4 -10z m0 -34 c-7 -7 -13 -7 -20 0 -6 6 -3 10 10 10 13 0
16 -4 10 -10z m-570 -206 c0 -5 -7 -7 -15 -4 -8 4 -12 10 -9 15 6 11 24 2 24
-11z m-663 -22 c-3 -8 -6 -5 -6 6 -1 11 2 17 5 13 3 -3 4 -12 1 -19z m10 -75
c-3 -10 -5 -4 -5 12 0 17 2 24 5 18 2 -7 2 -21 0 -30z m450 -30 c-3 -10 -5 -4
-5 12 0 17 2 24 5 18 2 -7 2 -21 0 -30z m1868 -63 c-3 -5 -12 -10 -18 -10 -7
0 -6 4 3 10 19 12 23 12 15 0z m-2405 -86 c0 -2 -7 -4 -15 -4 -8 0 -15 4 -15
10 0 5 7 7 15 4 8 -4 15 -8 15 -10z m-147 -21 c-7 -2 -19 -2 -25 0 -7 3 -2 5
12 5 14 0 19 -2 13 -5z m634 -55 c-3 -8 -6 -5 -6 6 -1 11 2 17 5 13 3 -3 4
-12 1 -19z m-358 -32 c-3 -3 -11 5 -18 17 -13 21 -12 21 5 5 10 -10 16 -20 13
-22z m348 -28 c-3 -7 -5 -2 -5 12 0 14 2 19 5 13 2 -7 2 -19 0 -25z m1734 9
c-10 -9 -11 -8 -5 6 3 10 9 15 12 12 3 -3 0 -11 -7 -18z m-1420 -80 c-10 -9
-11 -8 -5 6 3 10 9 15 12 12 3 -3 0 -11 -7 -18z m-508 -41 c4 -10 0 -12 -15
-8 -15 4 -17 7 -6 13 17 11 15 11 21 -5z m-116 -12 c-3 -3 -12 -4 -19 -1 -8 3
-5 6 6 6 11 1 17 -2 13 -5z m1905 -49 c-4 -5 -8 -2 -10 8 -2 9 -8 17 -13 17
-6 0 -7 5 -4 11 5 6 12 4 20 -8 7 -10 10 -22 7 -28z m49 -22 c13 -17 13 -17
-6 -3 -11 8 -22 16 -24 17 -2 2 0 3 6 3 6 0 17 -8 24 -17z m-1400 -20 c-12
-20 -14 -14 -5 12 4 9 9 14 11 11 3 -2 0 -13 -6 -23z m-187 -12 c17 -19 17
-19 -1 -15 -11 3 -20 12 -20 20 0 18 0 18 21 -5z m1662 -13 l19 -21 -30 18
c-41 26 -40 25 -23 25 8 0 23 -10 34 -22z m-1489 -20 c-3 -8 -6 -5 -6 6 -1 11
2 17 5 13 3 -3 4 -12 1 -19z m-97 2 c12 -8 11 -10 -7 -10 -13 0 -23 5 -23 10
0 13 11 13 30 0z m1630 -21 c0 -6 -4 -7 -10 -4 -5 3 -10 11 -10 16 0 6 5 7 10
4 6 -3 10 -11 10 -16z m-1497 -32 c4 3 7 1 7 -5 0 -7 -4 -12 -8 -12 -12 0 -32
22 -32 35 0 5 7 2 14 -7 7 -10 16 -15 19 -11z m1504 -19 c-3 -8 -6 -5 -6 6 -1
11 2 17 5 13 3 -3 4 -12 1 -19z m93 -4 c0 -2 -9 0 -20 6 -11 6 -20 13 -20 16
0 2 9 0 20 -6 11 -6 20 -13 20 -16z m-377 -18 c-10 -13 -20 -22 -22 -20 -4 4
29 44 36 44 2 0 -4 -11 -14 -24z m1020 17 c-7 -2 -19 -2 -25 0 -7 3 -2 5 12 5
14 0 19 -2 13 -5z m-3178 -13 c-3 -5 -12 -10 -18 -10 -7 0 -6 4 3 10 19 12 23
12 15 0z m-38 -16 c-3 -3 -12 -4 -19 -1 -8 3 -5 6 6 6 11 1 17 -2 13 -5z
m2490 -26 c-3 -7 -5 -2 -5 12 0 14 2 19 5 13 2 -7 2 -19 0 -25z m-2530 16 c-3
-3 -12 -4 -19 -1 -8 3 -5 6 6 6 11 1 17 -2 13 -5z m3083 -4 c-8 -5 -19 -10
-25 -10 -5 0 -3 5 5 10 8 5 20 10 25 10 6 0 3 -5 -5 -10z m-345 -70 c3 -5 2
-10 -4 -10 -5 0 -13 5 -16 10 -3 6 -2 10 4 10 5 0 13 -4 16 -10z m-627 -75
c-6 -14 -13 -23 -15 -21 -5 5 15 46 22 46 3 0 -1 -11 -7 -25z m383 -22 c-12
-20 -14 -14 -5 12 4 9 9 14 11 11 3 -2 0 -13 -6 -23z m-40 -80 c-12 -20 -14
-14 -5 12 4 9 9 14 11 11 3 -2 0 -13 -6 -23z m393 -8 c3 -8 1 -15 -4 -15 -6 0
-10 7 -10 15 0 8 2 15 4 15 2 0 6 -7 10 -15z m-777 -27 c-3 -7 -5 -2 -5 12 0
14 2 19 5 13 2 -7 2 -19 0 -25z m770 -40 c-3 -7 -5 -2 -5 12 0 14 2 19 5 13 2
-7 2 -19 0 -25z m113 -58 c0 -5 -4 -10 -10 -10 -5 0 -10 5 -10 10 0 6 5 10 10
10 6 0 10 -4 10 -10z m-1415 -426 c21 -142 23 -314 11 -776 l-9 -338 -58 0
-58 0 -7 48 c-12 76 -8 744 5 902 14 172 40 397 48 425 9 29 47 -116 68 -261z
m1262 164 c-2 -13 -4 -3 -4 22 0 25 2 35 4 23 2 -13 2 -33 0 -45z m438 34 c-3
-3 -11 0 -18 7 -9 10 -8 11 6 5 10 -3 15 -9 12 -12z"/>
<path d="M4283 5483 c9 -2 25 -2 35 0 9 3 1 5 -18 5 -19 0 -27 -2 -17 -5z"/>
<path d="M4186 5472 c-11 -2 -26 -10 -33 -18 -12 -12 -10 -13 16 -8 18 4 37 2
45 -5 7 -6 21 -8 31 -5 9 4 20 2 24 -3 3 -6 24 -13 46 -16 l40 -6 -37 12 c-20
7 -40 15 -44 20 -4 4 -18 7 -30 7 -13 0 -27 6 -31 13 -4 7 -17 11 -27 9z"/>
<path d="M5168 5469 c-10 -5 -18 -17 -18 -24 0 -17 -16 -20 -25 -5 -3 6 -12
10 -18 10 -7 0 -4 -5 6 -11 9 -6 15 -15 11 -21 -8 -12 34 9 59 30 30 27 20 42
-15 21z"/>
<path d="M4300 5463 c0 -9 95 -11 103 -3 3 3 -19 6 -49 8 -30 2 -54 -1 -54 -5z"/>
<path d="M4411 5449 c-13 -5 -40 -6 -59 -3 -23 4 -33 3 -29 -4 12 -19 55 -22
97 -7 48 17 78 19 40 3 -19 -8 -21 -12 -10 -16 8 -3 19 -10 23 -16 5 -7 7 -3
5 9 -2 15 4 21 27 25 30 6 30 6 -10 13 -49 8 -54 8 -84 -4z"/>
<path d="M4710 5453 c8 -3 21 -10 28 -16 9 -7 11 -6 6 7 -3 9 -16 16 -28 15
-14 0 -16 -2 -6 -6z"/>
<path d="M4568 5443 c6 -2 18 -2 25 0 6 3 1 5 -13 5 -14 0 -19 -2 -12 -5z"/>
<path d="M5056 5435 c10 -8 28 -14 39 -15 16 0 14 3 -9 15 -36 19 -56 19 -30
0z"/>
<path d="M4660 5433 c8 -3 21 -12 28 -21 11 -14 12 -14 12 0 0 16 -21 29 -43
27 -7 0 -5 -3 3 -6z"/>
<path d="M5232 5428 c-7 -7 -39 -21 -70 -31 -31 -9 -41 -14 -22 -11 19 4 46 7
60 9 38 4 37 4 43 25 6 23 5 24 -11 8z"/>
<path d="M4918 5423 c7 -3 16 -2 19 1 4 3 -2 6 -13 5 -11 0 -14 -3 -6 -6z"/>
<path d="M4398 5413 c7 -3 16 -2 19 1 4 3 -2 6 -13 5 -11 0 -14 -3 -6 -6z"/>
<path d="M4720 5411 c0 -6 8 -14 18 -20 14 -8 15 -12 5 -22 -11 -11 -13 -10
-13 1 0 7 -3 11 -6 8 -3 -4 1 -17 10 -30 8 -12 15 -27 15 -31 -1 -5 3 -12 7
-15 4 -4 4 11 1 33 l-5 40 24 -50 c24 -51 34 -49 12 2 -6 15 -11 31 -10 36 1
4 -2 7 -8 7 -5 0 -10 6 -10 13 0 7 -9 18 -20 25 -11 7 -20 8 -20 3z"/>
<path d="M5050 5410 c8 -5 22 -9 30 -9 10 0 8 3 -5 9 -27 12 -43 12 -25 0z"/>
<path d="M4444 5395 c11 -8 16 -18 13 -22 -4 -4 -13 -1 -19 5 -7 7 -17 12 -22
12 -6 0 3 -11 19 -25 l30 -25 -27 -24 c-36 -32 -36 -44 -1 -16 21 16 28 18 35
8 6 -8 6 -4 2 12 -4 14 -8 34 -8 45 -1 26 -14 45 -29 45 -7 0 -3 -7 7 -15z"/>
<path d="M4903 5400 c-13 -5 -23 -11 -23 -14 0 -5 72 13 79 20 8 7 -34 3 -56
-6z"/>
<path d="M4995 5400 c11 -5 29 -9 40 -9 l20 0 -20 9 c-11 5 -29 9 -40 9 l-20
0 20 -9z"/>
<path d="M5296 5401 c-4 -7 -5 -15 -2 -18 9 -9 19 4 14 18 -4 11 -6 11 -12 0z"/>
<path d="M4034 5378 c-3 -4 2 -8 10 -8 19 0 21 -31 4 -48 -9 -9 -9 -12 0 -12
7 0 12 6 13 13 0 6 4 3 9 -8 6 -15 8 -10 7 20 -2 39 -1 40 28 37 17 -2 27 -1
24 2 -9 9 -90 13 -95 4z"/>
<path d="M5320 5365 c-5 -14 -14 -25 -20 -25 -6 0 -8 5 -5 10 3 6 -1 10 -9 10
-10 0 -13 -7 -10 -24 4 -23 2 -23 -21 -13 -14 7 -25 15 -25 20 0 4 -5 7 -11 7
-8 0 -7 -5 1 -15 11 -13 10 -18 -6 -30 -15 -11 -16 -16 -7 -26 10 -10 21 -7
54 17 46 32 98 94 80 94 -6 0 -16 -11 -21 -25z m-70 -62 c-8 -3 -18 -11 -22
-17 -4 -6 -10 -7 -15 -3 -9 10 16 27 37 26 13 -1 13 -1 0 -6z"/>
<path d="M4895 5370 c-13 -6 -15 -9 -5 -9 8 0 22 4 30 9 18 12 2 12 -25 0z"/>
<path d="M5085 5371 l20 -8 -20 -5 c-11 -2 6 -4 38 -4 59 0 52 9 -18 19 -25 4
-33 3 -20 -2z"/>
<path d="M4125 5359 c-17 -8 -15 -8 8 -4 15 3 27 1 27 -5 0 -5 5 -10 11 -10 8
0 8 5 -1 15 -14 17 -17 17 -45 4z"/>
<path d="M5025 5360 c-13 -6 -15 -9 -5 -9 8 0 22 4 30 9 18 12 2 12 -25 0z"/>
<path d="M4820 5340 c-8 -5 -12 -11 -10 -14 3 -2 14 2 24 10 22 15 10 19 -14
4z"/>
<path d="M4190 5333 c0 -3 7 -11 16 -18 15 -10 13 -13 -17 -20 -22 -5 -28 -9
-17 -12 9 -2 26 1 38 7 14 7 26 8 38 1 15 -9 14 -10 -7 -11 -20 0 -22 -3 -13
-12 9 -9 15 -9 24 0 7 7 23 12 38 12 20 0 22 -2 10 -10 -11 -7 -12 -10 -2 -10
7 0 20 7 28 15 14 13 11 15 -21 15 -22 0 -34 4 -30 10 6 9 -14 14 -42 11 -7
-1 -13 2 -13 7 0 6 -7 12 -15 16 -8 3 -15 3 -15 -1z"/>
<path d="M4721 5324 c0 -11 3 -14 6 -6 3 7 2 16 -1 19 -3 4 -6 -2 -5 -13z"/>
<path d="M4880 5327 c10 -9 82 -18 77 -10 -3 5 -23 10 -43 11 -21 2 -36 1 -34
-1z"/>
<path d="M4435 5280 c-8 -13 5 -13 25 0 13 8 13 10 -2 10 -9 0 -20 -4 -23 -10z"/>
<path d="M4728 5283 c7 -3 16 -2 19 1 4 3 -2 6 -13 5 -11 0 -14 -3 -6 -6z"/>
<path d="M4130 5261 c0 -6 8 -16 19 -23 10 -7 19 -16 19 -21 0 -4 3 -13 6 -20
5 -9 7 -9 12 1 3 6 11 9 17 6 7 -4 -5 10 -26 30 -39 38 -47 42 -47 27z"/>
<path d="M4196 5255 c3 -8 13 -11 22 -8 9 4 14 2 10 -2 -5 -5 4 -16 20 -25 36
-22 64 -32 57 -21 -3 5 1 12 7 15 7 3 1 3 -14 0 -17 -4 -28 -2 -28 5 0 6 9 11
19 11 11 0 23 5 27 12 5 8 2 9 -10 5 -10 -4 -30 -9 -44 -12 -25 -5 -26 -5 -4
4 28 13 29 25 1 18 -12 -3 -32 -2 -45 3 -18 7 -22 6 -18 -5z"/>
<path d="M4485 5260 c-3 -5 -16 -10 -28 -10 -21 -1 -21 -1 -3 -11 13 -8 20 -8
25 -1 4 7 12 8 21 2 10 -6 2 -10 -26 -15 -52 -9 -64 -13 -36 -14 12 -1 54 8
94 19 74 20 108 38 49 25 -23 -5 -31 -4 -27 4 5 8 0 8 -19 1 -34 -13 -55 -13
-35 0 9 6 10 10 3 10 -6 0 -15 -4 -18 -10z m62 -16 c-3 -3 -12 -4 -19 -1 -8 3
-5 6 6 6 11 1 17 -2 13 -5z"/>
<path d="M5023 5262 c-35 -2 -63 -8 -63 -13 0 -6 3 -8 8 -6 4 3 52 8 106 11
55 4 102 8 104 11 4 4 -32 3 -155 -3z"/>
<path d="M4086 5252 c-3 -6 -1 -14 5 -17 15 -10 25 3 12 16 -7 7 -13 7 -17 1z"/>
<path d="M4905 5250 c-3 -5 1 -10 9 -10 8 0 18 5 21 10 3 6 -1 10 -9 10 -8 0
-18 -4 -21 -10z"/>
<path d="M4734 5241 c18 -7 18 -8 -5 -14 -13 -4 -33 -6 -44 -6 -17 1 -16 2 5
10 20 7 18 8 -10 3 -19 -4 -44 -6 -55 -6 -19 1 -19 0 -2 -12 17 -13 17 -14 0
-32 -16 -16 -16 -17 -1 -11 10 3 20 2 23 -2 2 -5 -5 -11 -17 -14 -12 -4 -26
-1 -30 6 -4 6 -10 8 -15 4 -4 -5 -1 -13 7 -18 12 -8 10 -10 -7 -6 -13 3 -23 1
-23 -4 0 -14 20 -11 74 10 39 15 45 19 27 24 -23 6 -29 27 -8 27 8 0 7 4 -3
11 -11 7 -4 8 25 3 51 -8 60 -14 44 -26 -10 -7 -8 -8 6 -2 11 4 35 12 53 18
17 6 32 14 32 18 0 4 -7 5 -15 2 -8 -3 -20 -2 -27 2 -9 6 -6 10 12 15 19 5 14
7 -20 7 -31 1 -39 -2 -26 -7z m23 -32 c-14 -8 -22 -8 -30 0 -8 8 -3 11 19 11
25 -1 27 -2 11 -11z"/>
<path d="M4566 5201 c-6 -10 24 -25 32 -16 3 3 -1 5 -9 6 -8 0 -6 4 6 9 19 8
19 9 -2 9 -12 1 -24 -3 -27 -8z"/>
<path d="M4243 5180 c14 -11 32 -20 40 -20 9 0 19 -5 23 -11 4 -8 9 -7 16 2 7
11 11 11 15 2 6 -16 40 -17 45 -2 4 11 38 2 38 -11 0 -11 -64 -22 -85 -14 -13
6 -16 4 -10 -5 5 -10 19 -11 49 -6 22 4 56 8 73 8 37 1 37 0 -2 22 l-30 17 33
-4 c17 -3 32 -1 32 4 0 4 -40 6 -89 4 -74 -4 -97 -1 -128 15 -47 24 -52 24
-20 -1z"/>
<path d="M4518 5193 c7 -3 16 -2 19 1 4 3 -2 6 -13 5 -11 0 -14 -3 -6 -6z"/>
<path d="M4666 5191 c-4 -5 3 -7 14 -4 23 6 26 13 6 13 -8 0 -17 -4 -20 -9z"/>
<path d="M4240 5139 c0 -5 5 -7 10 -4 6 3 10 8 10 11 0 2 -4 4 -10 4 -5 0 -10
-5 -10 -11z"/>
<path d="M4275 5130 c3 -5 10 -10 16 -10 5 0 9 5 9 10 0 6 -7 10 -16 10 -8 0
-12 -4 -9 -10z"/>
<path d="M4470 5088 c-16 -15 -25 -18 -28 -10 -2 7 -9 12 -15 12 -6 0 -4 -7 5
-16 10 -10 21 -13 30 -8 7 5 19 9 26 10 20 3 28 14 11 14 -11 0 -11 2 1 10 8
5 10 10 4 10 -5 0 -21 -10 -34 -22z"/>
<path d="M13111 3571 c-29 -29 -36 -75 -15 -111 17 -28 38 -36 81 -31 6 1 14
-2 17 -7 3 -5 21 -103 41 -218 20 -115 47 -274 61 -354 23 -130 98 -568 184
-1065 17 -99 40 -229 51 -289 10 -60 19 -111 19 -113 0 -2 271 -3 603 -3 l604
0 16 98 c137 787 264 1530 292 1697 20 116 38 220 40 233 5 19 12 22 49 22 36
0 45 4 54 25 16 35 14 86 -4 110 -15 20 -28 20 -1044 23 -1002 2 -1030 2
-1049 -17z m237 -167 c-15 -15 -18 -15 -39 0 -23 16 -23 16 16 16 36 0 38 -1
23 -16z m313 -1 c29 -17 29 -17 29 -119 l0 -102 -79 -46 c-43 -25 -83 -47 -88
-48 -6 -2 -49 19 -97 47 l-86 49 0 98 0 98 33 20 c44 27 243 29 288 3z m79 12
c0 -2 -8 -9 -19 -14 -13 -7 -24 -6 -37 4 -18 13 -16 14 19 15 20 0 37 -2 37
-5z m301 -16 c29 -20 29 -22 29 -119 l0 -98 -87 -49 c-47 -26 -90 -47 -95 -45
-5 1 -45 23 -89 49 l-79 46 0 101 c0 100 0 102 28 118 21 14 52 18 145 18 104
0 122 -3 148 -21z m69 11 c-20 -13 -47 -13 -55 0 -4 6 9 10 32 10 28 0 34 -3
23 -10z m301 -7 l30 -18 -3 -104 -3 -103 -75 -44 c-41 -24 -82 -43 -91 -43 -9
-1 -53 20 -98 46 l-81 48 0 98 0 97 33 20 c45 28 243 29 288 3z m79 12 c0 -2
-8 -9 -19 -14 -13 -7 -24 -6 -37 4 -18 13 -16 14 19 15 20 0 37 -2 37 -5z
m301 -16 c29 -20 29 -22 29 -119 l0 -98 -88 -49 -88 -49 -87 49 -87 49 0 102
c0 100 0 102 28 118 21 14 52 18 145 18 104 0 122 -3 148 -21z m64 7 c-14 -10
-25 -11 -37 -5 -27 14 -22 19 19 19 34 0 35 -1 18 -14z m172 -8 c-3 -13 -16
-81 -28 -153 -12 -71 -23 -131 -24 -133 -2 -2 -30 13 -64 33 l-61 36 0 104 c0
104 0 104 28 119 15 9 54 15 91 16 61 0 63 -1 58 -22z m-1719 -10 c7 -7 12
-40 11 -82 l-1 -71 -12 40 c-16 51 -26 125 -17 125 4 0 12 -5 19 -12z m118
-286 l79 -48 0 -99 0 -100 -55 -32 c-30 -18 -57 -30 -61 -25 -4 4 -20 85 -36
180 -21 121 -26 172 -18 172 6 0 47 -22 91 -48z m375 2 l80 -46 -3 -105 -3
-105 -85 -46 -86 -46 -87 50 -87 49 0 101 0 100 83 47 c45 26 88 47 95 47 7 0
49 -21 93 -46z m376 -1 l83 -47 0 -100 0 -101 -84 -47 c-46 -27 -88 -48 -94
-48 -5 0 -46 21 -91 47 l-81 48 0 101 0 102 78 46 c42 25 83 45 91 46 8 0 52
-21 98 -47z m373 1 l80 -46 0 -103 0 -104 -86 -47 c-98 -53 -91 -54 -207 20
l-57 37 0 97 0 97 83 47 c45 27 88 48 95 48 7 0 49 -21 92 -46z m360 10 c58
-34 60 -37 55 -67 -3 -18 -14 -79 -23 -137 l-17 -105 -46 -24 -46 -25 -86 49
-87 49 0 102 0 103 78 45 c42 24 85 45 94 45 9 1 44 -15 78 -35z m-1301 -321
l81 -48 0 -101 0 -101 -84 -50 -83 -49 -42 20 c-24 12 -44 29 -46 41 -21 96
-46 270 -39 272 5 2 32 16 59 33 28 16 55 29 61 29 7 1 48 -20 93 -46z m377 0
l84 -48 0 -102 0 -101 -87 -49 c-47 -26 -90 -47 -95 -45 -5 1 -45 23 -89 49
l-79 46 0 101 0 102 83 47 c45 26 86 47 91 47 4 0 46 -21 92 -47z m374 0 l81
-48 -3 -103 -3 -104 -75 -44 c-41 -24 -82 -43 -91 -43 -9 -1 -53 20 -98 47
l-82 47 3 100 3 100 80 47 c44 25 85 47 92 47 6 1 48 -20 93 -46z m376 0 l83
-48 1 -102 0 -101 -87 -49 c-47 -26 -90 -47 -95 -45 -5 1 -45 23 -89 49 l-79
46 0 101 0 102 83 47 c45 25 86 46 91 47 4 0 46 -21 92 -47z m180 -35 c-3 -13
-13 -69 -22 -125 -10 -57 -21 -103 -25 -103 -16 0 -23 26 -26 90 -5 95 3 127
35 145 37 20 43 19 38 -7z m-353 -301 l67 -39 0 -103 0 -102 -80 -47 c-44 -25
-85 -46 -92 -46 -7 0 -49 22 -93 48 l-80 48 -3 100 -3 100 88 50 c98 57 84 57
196 -9z m-763 7 l80 -46 0 -103 0 -102 -80 -47 c-44 -25 -85 -46 -92 -46 -7 0
-49 22 -93 48 l-80 48 -3 100 -3 100 83 47 c46 26 89 47 96 47 7 0 49 -21 92
-46z m378 -1 l82 -46 0 -102 0 -101 -83 -47 c-46 -26 -88 -47 -92 -47 -5 0
-46 21 -92 48 l-83 47 0 102 0 101 78 46 c42 25 84 45 92 46 8 0 52 -21 98
-47z m686 38 c3 -4 -8 -86 -24 -181 -17 -94 -30 -174 -30 -176 0 -11 -27 0
-85 34 l-65 37 0 102 0 102 78 45 c75 43 115 55 126 37z m-1356 -189 c-2 -54
-7 -97 -13 -99 -9 -3 -45 173 -45 220 0 17 2 17 30 -3 l31 -22 -3 -96z m80
-144 c118 -65 112 -56 112 -168 l0 -98 -72 -41 -73 -40 -7 32 c-4 18 -19 99
-33 181 -22 121 -24 150 -13 157 19 13 23 12 86 -23z m407 -17 l80 -48 3 -101
3 -101 -84 -45 c-46 -25 -90 -46 -98 -46 -8 0 -49 21 -91 46 l-78 45 0 103 0
103 78 46 c42 25 84 46 92 46 8 0 51 -21 95 -48z m371 2 l84 -48 0 -102 0
-102 -82 -47 c-46 -25 -87 -47 -93 -47 -5 0 -47 21 -92 48 l-83 48 0 101 0
101 83 47 c45 27 86 48 91 48 4 0 46 -21 92 -47z m365 7 c43 -26 69 -47 69
-58 0 -9 -9 -66 -20 -127 -11 -60 -20 -111 -20 -112 0 -1 -25 -15 -55 -32
l-56 -30 -84 51 -85 51 0 102 0 103 83 46 c45 25 86 45 90 46 5 0 40 -18 78
-40z m-908 -345 l67 -39 0 -101 0 -101 -83 -47 c-46 -26 -89 -47 -95 -47 -11
0 -112 58 -112 64 0 2 -9 52 -20 112 -11 60 -20 114 -20 121 0 6 35 31 78 56
66 39 80 44 97 33 11 -7 50 -30 88 -51z m430 -29 c15 -10 17 -24 15 -111 l-3
-99 -80 -48 c-44 -26 -86 -47 -93 -48 -7 0 -48 21 -92 46 l-80 47 0 102 0 103
83 49 82 50 75 -40 c41 -22 83 -45 93 -51z m308 37 l79 -48 0 -100 0 -101 -81
-47 c-44 -26 -87 -47 -96 -47 -8 0 -27 8 -41 18 -15 11 -51 32 -79 47 l-53 28
0 103 0 103 83 45 c45 25 88 46 95 46 8 0 49 -21 93 -47z m189 -15 c0 -24 -39
-241 -44 -246 -3 -2 -12 -2 -21 1 -12 5 -15 26 -15 111 l0 104 33 21 c37 24
47 26 47 9z m-766 -290 l71 -43 -77 -3 c-43 -2 -113 -2 -155 0 l-78 3 75 42
c41 24 79 43 84 43 6 0 42 -19 80 -42z m371 1 c38 -22 72 -42 74 -45 2 -2 -67
-4 -155 -4 l-159 0 75 45 c41 25 80 45 85 45 6 0 42 -18 80 -41z m326 31 c22
-12 27 -68 6 -76 -8 -3 -54 -4 -103 -2 l-89 3 70 42 c76 45 87 48 116 33z
m-1036 -52 c34 -15 32 -28 -5 -28 -23 0 -30 4 -30 20 0 23 1 24 35 8z"/>
<path d="M7847 2089 c-70 -80 -127 -217 -127 -304 0 -29 4 -31 98 -66 53 -21
228 -87 387 -149 531 -204 489 -190 575 -190 l78 0 11 47 c33 131 -34 211
-299 354 -144 78 -205 126 -226 175 -12 28 -19 32 -66 38 -80 11 -200 54 -285
102 -42 24 -82 44 -89 44 -7 0 -33 -23 -57 -51z"/>
<path d="M9754 1796 c-7 -11 -23 -49 -35 -84 -18 -55 -21 -80 -17 -176 3 -61
8 -118 12 -127 6 -14 42 -17 254 -22 136 -4 406 -7 600 -7 l352 0 0 63 c-1
113 -49 177 -165 218 -31 11 -132 31 -223 44 -194 29 -249 45 -286 84 l-27 28
-62 -13 c-78 -17 -220 -17 -315 0 -70 12 -74 12 -88 -8z"/>
</g>
</svg>
