<?xml version="1.0" standalone="no"?>
<!DOCTYPE svg PUBLIC "-//W3C//DTD SVG 20010904//EN"
 "http://www.w3.org/TR/2001/REC-SVG-20010904/DTD/svg10.dtd">
<svg version="1.0" xmlns="http://www.w3.org/2000/svg"
 width="260.000000pt" height="280.000000pt" viewBox="0 0 260.000000 280.000000"
 preserveAspectRatio="xMidYMid meet">

<g transform="translate(0.000000,280.000000) scale(0.100000,-0.100000)"
fill="#000000" stroke="none">
<path d="M609 2171 c-25 -25 -29 -37 -29 -81 0 -44 3 -51 18 -48 12 2 18 14
20 40 2 26 11 44 29 58 25 19 39 20 463 20 425 0 438 -1 463 -20 22 -18 26
-30 29 -83 l3 -62 125 -3 125 -3 148 -147 147 -147 0 -47 0 -48 -764 0 c-755
0 -764 0 -769 20 -3 11 -12 20 -21 20 -14 0 -16 -19 -16 -151 l0 -151 29 -29
c26 -26 36 -29 90 -29 54 0 61 2 61 20 0 17 -7 20 -50 20 -77 0 -90 20 -90
137 l0 93 765 0 765 0 0 -89 c0 -102 -13 -128 -70 -140 -48 -10 -46 -35 3 -39
32 -3 43 2 72 31 l35 35 0 184 0 183 -163 163 -162 162 -113 0 -112 0 0 51 c0
44 -4 55 -31 80 l-31 29 -470 0 -470 0 -29 -29z"/>
<path d="M363 1984 c-3 -9 0 -20 8 -25 8 -5 111 -9 230 -9 178 0 219 3 229 15
26 31 0 35 -231 35 -201 0 -230 -2 -236 -16z"/>
<path d="M1710 1810 l0 -130 174 0 c117 0 177 4 182 11 4 6 -44 62 -112 130
l-119 119 -62 0 -63 0 0 -130z m195 0 l90 -90 -123 0 -122 0 0 90 0 90 33 0
c28 0 46 -13 122 -90z"/>
<path d="M290 1850 c0 -20 4 -20 238 -18 203 3 237 5 237 18 0 13 -34 15 -237
18 -234 2 -238 2 -238 -18z"/>
<path d="M223 1724 c-3 -9 0 -20 8 -25 16 -10 418 -12 443 -3 9 3 16 15 16 25
0 18 -11 19 -230 19 -202 0 -231 -2 -237 -16z"/>
<path d="M931 1440 c-135 -32 -182 -202 -82 -301 80 -80 199 -72 268 18 25 32
28 45 28 108 0 63 -3 76 -28 108 -44 58 -115 84 -186 67z m114 -60 c59 -37 80
-111 49 -176 -44 -92 -181 -99 -234 -11 -74 121 65 261 185 187z"/>
<path d="M950 1285 c-18 -22 -1 -50 31 -50 20 0 24 5 24 30 0 23 -5 31 -21 33
-11 2 -27 -4 -34 -13z"/>
<path d="M1781 1440 c-96 -23 -159 -130 -131 -223 42 -142 227 -178 317 -61
36 48 44 141 15 194 -37 68 -125 108 -201 90z m108 -58 c63 -34 87 -110 55
-178 -44 -92 -181 -99 -234 -11 -73 119 56 255 179 189z"/>
<path d="M1794 1286 c-11 -28 1 -51 25 -51 32 0 49 28 32 49 -17 20 -50 21
-57 2z"/>
<path d="M1200 1300 c0 -20 4 -20 198 -18 167 3 197 5 197 18 0 13 -30 15
-197 18 -194 2 -198 2 -198 -18z"/>
<path d="M603 95 c0 -27 2 -38 4 -22 2 15 8 27 13 27 5 0 11 -12 13 -27 4 -26
4 -26 6 5 1 22 -4 32 -13 32 -8 0 -17 8 -19 18 -3 9 -5 -5 -4 -33z"/>
<path d="M1102 95 c0 -27 2 -43 5 -35 3 8 13 24 22 35 15 18 15 19 -1 7 -14
-12 -17 -10 -21 15 -2 16 -4 6 -5 -22z"/>
<path d="M720 120 c-4 -25 1 -54 10 -63 4 -5 5 3 3 17 -4 19 -1 26 10 26 9 0
17 -10 19 -22 2 -12 9 -23 16 -24 7 -1 8 0 2 3 -12 6 -13 40 -1 45 5 2 3 9 -5
16 -8 7 -14 8 -14 2 0 -14 -27 -13 -33 3 -4 8 -6 8 -7 -3z"/>
<path d="M949 118 c-2 -25 3 -53 11 -62 5 -5 6 1 3 14 -3 12 -1 25 4 29 7 4 6
11 -3 19 -11 10 -14 10 -15 0z"/>
<path d="M1500 125 c-1 -5 -1 -21 0 -34 1 -13 -4 -28 -12 -32 -9 -6 -3 -9 17
-9 17 0 25 4 18 8 -6 4 -13 23 -16 42 -2 19 -5 31 -7 25z"/>
<path d="M1552 105 c-22 -28 -23 -30 -5 -34 10 -2 21 -8 24 -13 10 -15 16 14
10 47 l-6 29 -23 -29z m14 -22 c-10 -10 -19 5 -10 18 6 11 8 11 12 0 2 -7 1
-15 -2 -18z"/>
<path d="M1605 120 c-4 -6 1 -7 11 -3 13 5 16 3 11 -10 -3 -9 -2 -19 4 -22 14
-9 -1 -27 -18 -21 -8 3 -11 1 -8 -4 10 -16 32 -12 39 7 6 14 8 14 21 -3 13
-18 15 -18 31 -2 16 16 18 16 30 0 12 -16 14 -16 30 0 11 11 15 24 10 42 -7
30 -30 34 -45 9 -9 -17 -10 -17 -16 0 -10 25 -32 21 -49 -10 l-15 -28 -1 28
c0 27 -22 38 -35 17z m90 -30 c0 -27 -20 -38 -28 -15 -8 20 3 47 17 42 6 -2
11 -14 11 -27z m60 0 c0 -27 -20 -38 -28 -15 -8 20 3 47 17 42 6 -2 11 -14 11
-27z"/>
<path d="M1787 123 c-3 -5 -4 -21 -3 -38 1 -23 6 -30 21 -30 11 0 20 6 19 13
-1 6 -2 23 -2 37 -2 23 -25 35 -35 18z m23 -13 c0 -5 -4 -10 -10 -10 -5 0 -10
5 -10 10 0 6 5 10 10 10 6 0 10 -4 10 -10z m2 -35 c0 -5 -5 -11 -11 -13 -6 -2
-11 4 -11 13 0 9 5 15 11 13 6 -2 11 -8 11 -13z"/>
<path d="M1857 123 c22 -4 22 -6 8 -33 -22 -42 -17 -51 5 -10 25 46 25 50 -7
49 -24 -2 -25 -2 -6 -6z"/>
<path d="M1900 110 c-13 -24 2 -60 25 -60 17 0 28 33 20 60 -3 11 -13 20 -20
20 -8 0 -19 -9 -25 -20z m35 -20 c0 -27 -20 -38 -28 -15 -8 20 3 47 17 42 6
-2 11 -14 11 -27z"/>
<path d="M1967 123 c-12 -12 -7 -33 7 -33 26 0 28 -20 4 -29 -14 -6 -17 -10
-7 -10 8 -1 20 4 26 10 14 14 6 39 -13 39 -20 0 -17 18 4 23 14 4 14 5 1 6 -9
0 -19 -2 -22 -6z"/>
<path d="M2040 125 c-1 -5 -1 -21 0 -34 1 -13 -4 -28 -12 -32 -9 -6 -3 -9 17
-9 17 0 25 4 18 8 -6 4 -13 23 -16 42 -2 19 -5 31 -7 25z"/>
<path d="M550 93 c0 -10 4 -14 8 -8 4 6 11 13 16 18 5 4 2 7 -7 7 -10 0 -17
-8 -17 -17z"/>
<path d="M661 83 c-1 -27 3 -33 19 -33 16 0 20 6 19 33 -2 30 -2 30 -6 5 -6
-36 -20 -36 -26 0 -4 25 -4 25 -6 -5z"/>
<path d="M807 104 c-13 -13 -7 -24 14 -24 11 0 19 5 17 12 -5 14 -22 21 -31
12z"/>
<path d="M861 78 c2 -28 2 -29 6 -8 3 14 10 28 17 32 7 5 5 8 -6 8 -14 0 -18
-8 -17 -32z"/>
<path d="M900 93 c0 -10 4 -14 8 -8 4 6 11 13 16 18 5 4 2 7 -7 7 -10 0 -17
-8 -17 -17z"/>
<path d="M997 103 c-11 -10 -8 -41 4 -49 16 -9 41 20 33 39 -6 17 -25 22 -37
10z m28 -23 c0 -7 -6 -15 -12 -17 -8 -3 -13 4 -13 17 0 13 5 20 13 18 6 -3 12
-11 12 -18z"/>
<path d="M1054 95 c-8 -20 2 -45 18 -44 10 0 10 2 1 6 -7 2 -13 13 -13 23 0
10 6 21 13 23 9 4 9 6 -1 6 -7 1 -15 -6 -18 -14z"/>
<path d="M1194 95 c-8 -20 2 -45 18 -44 10 0 10 2 1 6 -7 2 -13 13 -13 23 0
10 6 21 13 23 9 4 9 6 -1 6 -7 1 -15 -6 -18 -14z"/>
<path d="M1244 95 c-8 -21 2 -45 20 -45 7 0 16 7 20 15 8 21 -3 45 -20 45 -8
0 -17 -7 -20 -15z m31 -15 c0 -7 -6 -15 -12 -17 -8 -3 -13 4 -13 17 0 13 5 20
13 18 6 -3 12 -11 12 -18z"/>
<path d="M1301 77 c2 -31 2 -31 6 -4 2 15 8 27 13 27 5 0 11 -12 13 -27 l4
-28 2 28 c0 15 5 27 10 27 5 0 12 -12 14 -27 4 -27 4 -27 6 4 1 29 -1 31 -34
31 -33 0 -35 -2 -34 -31z"/>
<path d="M562 65 c-11 -12 -10 -15 3 -15 8 0 15 7 15 15 0 18 -2 18 -18 0z"/>
<path d="M912 65 c-11 -12 -10 -15 3 -15 8 0 15 7 15 15 0 18 -2 18 -18 0z"/>
<path d="M1120 71 c0 -5 5 -13 10 -16 6 -3 10 -2 10 4 0 5 -4 13 -10 16 -5 3
-10 2 -10 -4z"/>
<path d="M808 58 c5 -5 16 -8 23 -6 8 3 3 7 -10 11 -17 4 -21 3 -13 -5z"/>
</g>
</svg>
