<?xml version="1.0" standalone="no"?>
<!DOCTYPE svg PUBLIC "-//W3C//DTD SVG 20010904//EN"
 "http://www.w3.org/TR/2001/REC-SVG-20010904/DTD/svg10.dtd">
<svg version="1.0" xmlns="http://www.w3.org/2000/svg"
 width="1365.000000pt" height="1365.000000pt" viewBox="0 0 1365.000000 1365.000000"
 preserveAspectRatio="xMidYMid meet">

<g transform="translate(0.000000,1365.000000) scale(0.100000,-0.100000)"
fill="#000000" stroke="none">
<path d="M6374 13520 c-67 -16 -137 -38 -156 -49 -19 -12 -58 -25 -87 -31 -54
-10 -285 -121 -383 -183 -180 -116 -464 -389 -568 -547 -82 -125 -180 -296
-180 -315 0 -7 -9 -24 -20 -38 -11 -14 -20 -35 -20 -46 0 -12 -9 -39 -20 -61
-11 -22 -20 -48 -20 -58 0 -10 -8 -43 -19 -73 -10 -30 -21 -83 -25 -119 -4
-35 -14 -91 -23 -124 -22 -85 -14 -573 11 -691 73 -346 201 -610 438 -908 110
-138 345 -337 519 -440 195 -115 451 -200 684 -228 44 -5 202 -9 352 -9 265 0
274 0 405 29 258 58 404 112 584 217 205 119 454 355 628 594 64 89 177 313
226 451 23 63 55 184 73 269 31 149 32 164 32 395 0 242 -15 391 -50 513 -7
26 -25 90 -40 142 -29 107 -129 319 -200 425 -151 224 -395 471 -609 614 -90
61 -232 137 -271 145 -16 4 -55 20 -85 35 -59 31 -184 73 -290 97 -49 12 -151
16 -415 20 l-350 4 -121 -30z"/>
<path d="M3985 8711 c-55 -4 -102 -13 -120 -24 -16 -9 -35 -17 -40 -17 -6 0
-28 -15 -50 -32 -21 -18 -72 -58 -113 -89 -94 -73 -298 -258 -582 -529 -124
-118 -311 -293 -415 -389 -605 -556 -985 -925 -1074 -1043 -91 -122 -144 -252
-163 -402 -15 -116 -23 -3406 -9 -3718 12 -257 19 -295 83 -422 120 -238 484
-563 863 -771 39 -21 82 -47 97 -57 40 -28 352 -200 454 -251 108 -54 399
-183 434 -192 14 -4 35 -13 47 -21 12 -7 57 -25 100 -40 43 -14 87 -30 98 -35
112 -49 225 -73 239 -50 9 13 -53 123 -120 214 -129 175 -374 548 -418 635
-25 50 -58 131 -73 179 l-28 88 -3 1845 c-1 1015 2 2050 6 2300 l9 455 35 81
c96 222 275 379 508 443 108 31 297 41 756 41 220 0 557 3 747 7 l347 6 0 57
c0 70 -25 122 -119 246 -38 50 -182 252 -321 450 -516 732 -678 937 -807 1021
-27 18 -221 25 -368 14z"/>
<path d="M9309 8711 c-108 -15 -170 -88 -735 -866 -132 -181 -278 -384 -325
-450 -47 -66 -136 -191 -198 -277 -61 -86 -114 -164 -117 -171 -8 -23 89 -26
971 -33 933 -7 996 -10 1111 -54 209 -79 331 -192 422 -389 l35 -76 9 -225 c5
-124 7 -1179 6 -2345 l-3 -2120 -38 -80 c-41 -85 -101 -185 -152 -250 -17 -22
-48 -68 -68 -101 -44 -73 -193 -280 -300 -417 -43 -55 -84 -112 -92 -127 -24
-47 -18 -77 15 -71 31 5 208 72 320 121 78 34 165 68 193 77 90 27 721 355
982 511 179 107 419 277 538 382 97 86 237 278 301 415 l33 70 6 1545 c5 1515
-3 2380 -22 2450 -5 19 -14 49 -19 65 -6 17 -19 57 -29 90 -10 33 -39 95 -65
138 -86 144 -215 276 -798 817 -245 228 -519 484 -610 570 -91 85 -201 187
-245 225 -44 39 -143 128 -220 199 -170 158 -289 253 -326 261 -17 4 -35 19
-48 40 -25 43 -59 60 -148 74 -76 12 -306 13 -384 2z"/>
<path d="M5717 8685 c-15 -13 -27 -32 -27 -43 0 -38 190 -325 482 -726 24 -32
52 -73 63 -91 11 -18 43 -65 72 -106 29 -41 62 -87 73 -104 11 -16 31 -46 45
-65 13 -19 49 -71 79 -115 30 -44 77 -111 105 -150 27 -38 72 -101 98 -140 27
-38 62 -88 78 -111 l29 -40 57 65 c31 37 173 235 316 441 235 340 344 493 604
852 76 106 169 255 177 285 6 22 -45 43 -129 53 -46 5 -536 11 -1089 14
l-1005 4 -28 -23z"/>
<path d="M4185 5991 l-60 -6 -6 -340 c-4 -187 -7 -1070 -9 -1961 l-2 -1621 22
-44 c29 -58 47 -77 95 -103 39 -21 48 -21 460 -19 231 1 457 5 502 8 l81 7 7
111 c10 155 2 3953 -8 3963 -10 10 -996 15 -1082 5z"/>
<path d="M6235 5992 l-70 -7 -3 -2042 -2 -2043 1703 0 1704 0 41 30 c23 16 49
44 59 62 17 31 18 135 21 2014 l3 1981 -128 7 c-70 3 -149 4 -174 0 -42 -6
-48 -10 -53 -36 -3 -17 -6 -240 -6 -497 0 -456 -7 -710 -19 -730 -8 -13 -1723
-26 -1766 -14 -27 8 -31 15 -36 59 -4 27 -10 311 -15 632 l-7 582 -166 0 c-91
0 -357 2 -591 4 -234 2 -456 1 -495 -2z"/>
<path d="M8210 5991 c-33 -6 -35 -8 -43 -61 -4 -30 -7 -142 -5 -248 2 -158 6
-194 18 -202 8 -5 115 -10 238 -10 l222 0 0 258 0 259 -122 6 c-139 8 -258 7
-308 -2z"/>
<path d="M4646 1002 c-21 -20 31 -115 187 -342 232 -336 264 -375 326 -395 13
-4 58 -11 100 -15 101 -10 296 -37 401 -55 47 -8 166 -24 264 -35 161 -19 240
-21 785 -20 465 0 643 3 766 15 88 8 210 20 270 26 296 27 732 97 787 125 32
17 142 146 223 264 32 47 91 128 130 180 95 126 124 170 134 208 l10 32 -1267
0 c-1306 0 -2981 8 -3064 15 -25 2 -49 1 -52 -3z"/>
</g>
</svg>
